<svg id="Layer_2" data-name="Layer 2" xmlns="http://www.w3.org/2000/svg" viewBox="0 0 504 504"><defs><style>.cls-1{fill:#fffffe;stroke:#fff;stroke-width:4px;}.cls-1,.cls-4,.cls-5{stroke-miterlimit:10;}.cls-2{opacity:0.63;}.cls-3,.cls-5{opacity:0.09;}.cls-4,.cls-5{fill:#fff;stroke:#000;stroke-width:2.06px;}</style></defs><title>background</title><rect class="cls-1" x="2" y="2" width="500" height="500"/><g class="cls-2"><g class="cls-3"><circle class="cls-4" cx="215.54" cy="44.55" r="11.22"/><line class="cls-4" x1="218.14" y1="33.64" x2="218.14" y2="55.47"/><line class="cls-4" x1="212.53" y1="33.64" x2="212.53" y2="55.47"/><line class="cls-4" x1="226.76" y1="44.55" x2="204.32" y2="44.55"/></g><g class="cls-3"><circle class="cls-4" cx="37.4" cy="121.6" r="11.22" transform="translate(-73.03 64.07) rotate(-45)"/><line class="cls-4" x1="33.52" y1="114.05" x2="48.96" y2="129.49"/><line class="cls-4" x1="29.55" y1="118.01" x2="44.99" y2="133.45"/><line class="cls-4" x1="47.34" y1="115.67" x2="31.47" y2="131.54"/></g><g class="cls-3"><circle class="cls-4" cx="124.09" cy="209.63" r="11.22" transform="translate(-109.89 151.15) rotate(-45)"/><line class="cls-4" x1="116.54" y1="217.51" x2="131.98" y2="202.08"/><line class="cls-4" x1="120.5" y1="221.48" x2="135.94" y2="206.04"/><line class="cls-4" x1="118.16" y1="203.7" x2="134.03" y2="219.57"/></g><g class="cls-3"><path class="cls-4" d="M115.33,33.52C116,33.41,123.51,32.25,129,38a16.06,16.06,0,0,1,4.08,13.33c-0.35.08-8.65,1.7-14.3-4.52C113.79,41.24,115.18,34.21,115.33,33.52Z" transform="translate(2 2)"/><circle class="cls-4" cx="124.42" cy="42.23" r="6.24" transform="translate(8.58 102.34) rotate(-45)"/><circle class="cls-4" cx="124.42" cy="42.23" r="1.4" transform="translate(8.58 102.34) rotate(-45)"/></g><g class="cls-3"><path class="cls-4" d="M213.73,109c0.52,0.37,6.68,4.88,6.55,12.85a16.06,16.06,0,0,1-6.55,12.31c-0.3-.2-7.32-4.92-6.91-13.31C207.18,113.39,213.14,109.41,213.73,109Z" transform="translate(2 2)"/><circle class="cls-4" cx="216" cy="123.6" r="6.24"/><circle class="cls-4" cx="216" cy="123.6" r="1.4"/></g><g class="cls-3"><path class="cls-4" d="M37.59,197.05c0.52,0.37,6.68,4.88,6.55,12.85a16.06,16.06,0,0,1-6.55,12.31c-0.3-.2-7.32-4.92-6.91-13.31C31,201.42,37,197.44,37.59,197.05Z" transform="translate(2 2)"/><circle class="cls-4" cx="39.86" cy="211.63" r="6.24"/><circle class="cls-4" cx="39.86" cy="211.63" r="1.4"/></g><path class="cls-5" d="M31.29,44.75H36L33.87,52.8l9.66-11.64-6.12-.08,2-8.77q-1.15,1.62-2.3,3.32Q33.94,40.26,31.29,44.75Z" transform="translate(2 2)"/><path class="cls-5" d="M219.42,212.4l-3.33-3.33,7.2-4.19-15.06,1.41,4.27,4.38-7.6,4.81q2-.34,4-0.72C212.54,214.05,216.05,213.26,219.42,212.4Z" transform="translate(2 2)"/><path class="cls-5" d="M121.32,127.48l3.33-3.33,4.19,7.2-1.41-15.06-4.38,4.27-4.81-7.6q0.34,2,.72,4C119.67,120.6,120.47,124.12,121.32,127.48Z" transform="translate(2 2)"/><g class="cls-3"><circle class="cls-4" cx="464.56" cy="45.85" r="11.22"/><line class="cls-4" x1="453.65" y1="43.25" x2="475.48" y2="43.25"/><line class="cls-4" x1="453.65" y1="48.86" x2="475.48" y2="48.86"/><line class="cls-4" x1="464.56" y1="34.63" x2="464.56" y2="57.07"/></g><g class="cls-3"><circle class="cls-4" cx="286.43" cy="122.9" r="11.22" transform="translate(-1.01 240.53) rotate(-45)"/><line class="cls-4" x1="278.87" y1="130.78" x2="294.31" y2="115.34"/><line class="cls-4" x1="282.84" y1="134.75" x2="298.28" y2="119.31"/><line class="cls-4" x1="280.49" y1="116.96" x2="296.36" y2="132.83"/></g><g class="cls-3"><circle class="cls-4" cx="375.12" cy="212.93" r="11.22"/><line class="cls-4" x1="377.72" y1="202.01" x2="377.72" y2="223.84"/><line class="cls-4" x1="372.1" y1="202.01" x2="372.1" y2="223.84"/><line class="cls-4" x1="386.34" y1="212.93" x2="363.9" y2="212.93"/></g><g class="cls-3"><path class="cls-4" d="M364.09,52.61c-0.11-.63-1.28-8.18,4.46-13.71a16.06,16.06,0,0,1,13.33-4.08c0.08,0.35,1.7,8.65-4.52,14.3C371.81,54.15,364.78,52.76,364.09,52.61Z" transform="translate(2 2)"/><circle class="cls-4" cx="372.79" cy="43.52" r="6.24" transform="translate(80.41 278.35) rotate(-45)"/><circle class="cls-4" cx="372.79" cy="43.52" r="1.4" transform="translate(80.41 278.35) rotate(-45)"/></g><g class="cls-3"><path class="cls-4" d="M450,122.71c0.37-.52,4.88-6.68,12.85-6.55a16.06,16.06,0,0,1,12.31,6.55c-0.2.3-4.92,7.32-13.31,6.91C454.35,129.26,450.37,123.3,450,122.71Z" transform="translate(2 2)"/><circle class="cls-4" cx="464.56" cy="124.44" r="6.24"/><circle class="cls-4" cx="464.56" cy="124.44" r="1.4"/></g><g class="cls-3"><path class="cls-4" d="M277.4,219.69c-0.11-.63-1.28-8.18,4.46-13.71a16.06,16.06,0,0,1,13.33-4.08c0.08,0.35,1.7,8.65-4.52,14.3C285.12,221.23,278.09,219.84,277.4,219.69Z" transform="translate(2 2)"/><circle class="cls-4" cx="286.1" cy="210.6" r="6.24" transform="translate(-63.12 265.99) rotate(-45)"/><circle class="cls-4" cx="286.1" cy="210.6" r="1.4" transform="translate(-63.12 265.99) rotate(-45)"/></g><path class="cls-5" d="M280.55,41.07l3.33,3.33-7.2,4.19,15.06-1.41-4.27-4.38,7.6-4.81q-2,.34-4,0.72C287.43,39.42,283.91,40.22,280.55,41.07Z" transform="translate(2 2)"/><path class="cls-5" d="M456.45,213.12h4.71L459,221.17l9.66-11.64-6.12-.08,2-8.77q-1.15,1.62-2.3,3.32Q459.1,208.64,456.45,213.12Z" transform="translate(2 2)"/><path class="cls-5" d="M375.31,129v-4.71l8.05,2.13-11.64-9.66-0.08,6.12-8.77-2q1.62,1.15,3.32,2.3Q370.83,126.36,375.31,129Z" transform="translate(2 2)"/><g class="cls-3"><circle class="cls-4" cx="214.21" cy="291.01" r="11.22"/><line class="cls-4" x1="211.62" y1="301.93" x2="211.62" y2="280.09"/><line class="cls-4" x1="217.23" y1="301.93" x2="217.23" y2="280.09"/><line class="cls-4" x1="202.99" y1="291.01" x2="225.44" y2="291.01"/></g><g class="cls-3"><circle class="cls-4" cx="36.08" cy="368.06" r="11.22" transform="translate(-247.69 135.31) rotate(-45)"/><line class="cls-4" x1="28.52" y1="375.94" x2="43.96" y2="360.5"/><line class="cls-4" x1="32.49" y1="379.91" x2="47.93" y2="364.47"/><line class="cls-4" x1="30.14" y1="362.13" x2="46.01" y2="378"/></g><g class="cls-3"><circle class="cls-4" cx="122.77" cy="456.09" r="11.22" transform="translate(-284.55 222.4) rotate(-45)"/><line class="cls-4" x1="118.89" y1="448.53" x2="134.32" y2="463.97"/><line class="cls-4" x1="114.92" y1="452.5" x2="130.36" y2="467.94"/><line class="cls-4" x1="132.7" y1="450.15" x2="116.83" y2="466.02"/></g><g class="cls-3"><path class="cls-4" d="M113.74,297.77c-0.11-.63-1.28-8.18,4.46-13.71A16.06,16.06,0,0,1,131.53,280c0.08,0.35,1.7,8.65-4.52,14.3C121.46,299.31,114.43,297.92,113.74,297.77Z" transform="translate(2 2)"/><circle class="cls-4" cx="122.44" cy="288.69" r="6.24" transform="translate(-166.27 173.13) rotate(-45)"/><circle class="cls-4" cx="122.44" cy="288.69" r="1.4" transform="translate(-166.27 173.13) rotate(-45)"/></g><g class="cls-3"><path class="cls-4" d="M199.63,367.87c0.37-.52,4.88-6.68,12.85-6.55a16.06,16.06,0,0,1,12.31,6.55c-0.2.3-4.92,7.32-13.31,6.91C204,374.42,200,368.46,199.63,367.87Z" transform="translate(2 2)"/><circle class="cls-4" cx="214.21" cy="369.6" r="6.24"/><circle class="cls-4" cx="214.21" cy="369.6" r="1.4"/></g><g class="cls-3"><path class="cls-4" d="M35.89,468.67c-0.52-.37-6.68-4.88-6.55-12.85a16.06,16.06,0,0,1,6.55-12.31c0.3,0.2,7.32,4.92,6.91,13.31C42.44,464.3,36.48,468.29,35.89,468.67Z" transform="translate(2 2)"/><circle class="cls-4" cx="37.62" cy="458.09" r="6.24"/><circle class="cls-4" cx="37.62" cy="458.09" r="1.4"/></g><path class="cls-5" d="M38.28,295.13v-4.71l8.05,2.13-11.64-9.66L34.6,289l-8.77-2q1.62,1.15,3.32,2.3Q33.79,292.47,38.28,295.13Z" transform="translate(2 2)"/><path class="cls-5" d="M218.09,458.86l-3.33-3.33,7.2-4.19-15.06,1.41,4.27,4.38-7.6,4.81q2-.34,4-0.72C211.21,460.51,214.73,459.72,218.09,458.86Z" transform="translate(2 2)"/><path class="cls-5" d="M116.65,370.26h4.71l-2.13,8.05,9.66-11.64-6.12-.08,2-8.77q-1.15,1.62-2.3,3.32Q119.3,365.77,116.65,370.26Z" transform="translate(2 2)"/><g class="cls-3"><circle class="cls-4" cx="461.24" cy="290.3" r="11.22" transform="translate(-68.18 413.17) rotate(-45)"/><line class="cls-4" x1="457.36" y1="282.75" x2="472.79" y2="298.19"/><line class="cls-4" x1="453.39" y1="286.71" x2="468.83" y2="302.15"/><line class="cls-4" x1="471.17" y1="284.37" x2="455.3" y2="300.24"/></g><g class="cls-3"><circle class="cls-4" cx="285.1" cy="369.35" r="11.22" transform="translate(-175.67 311.78) rotate(-45)"/><line class="cls-4" x1="281.22" y1="361.8" x2="296.66" y2="377.24"/><line class="cls-4" x1="277.25" y1="365.77" x2="292.69" y2="381.2"/><line class="cls-4" x1="295.04" y1="363.42" x2="279.17" y2="379.29"/></g><g class="cls-3"><circle class="cls-4" cx="373.79" cy="459.38" r="11.22"/><line class="cls-4" x1="362.88" y1="456.78" x2="384.71" y2="456.78"/><line class="cls-4" x1="362.88" y1="462.4" x2="384.71" y2="462.4"/><line class="cls-4" x1="373.79" y1="448.16" x2="373.79" y2="470.6"/></g><g class="cls-3"><path class="cls-4" d="M359.21,290.11c0.37-.52,4.88-6.68,12.85-6.55a16.06,16.06,0,0,1,12.31,6.55c-0.2.3-4.92,7.32-13.31,6.91C363.58,296.66,359.6,290.71,359.21,290.11Z" transform="translate(2 2)"/><circle class="cls-4" cx="373.79" cy="291.84" r="6.24"/><circle class="cls-4" cx="373.79" cy="291.84" r="1.4"/></g><g class="cls-3"><path class="cls-4" d="M452.21,378.11c-0.11-.63-1.28-8.18,4.46-13.71A16.06,16.06,0,0,1,470,360.33c0.08,0.35,1.7,8.65-4.52,14.3C459.93,379.66,452.9,378.26,452.21,378.11Z" transform="translate(2 2)"/><circle class="cls-4" cx="460.91" cy="369.03" r="6.24" transform="translate(-123.95 436) rotate(-45)"/><circle class="cls-4" cx="460.91" cy="369.03" r="1.4" transform="translate(-123.95 436) rotate(-45)"/></g><g class="cls-3"><path class="cls-4" d="M276.34,448.35c0.63-.11,8.18-1.28,13.71,4.46a16.06,16.06,0,0,1,4.08,13.33c-0.35.08-8.65,1.7-14.3-4.52C274.8,456.08,276.19,449,276.34,448.35Z" transform="translate(2 2)"/><circle class="cls-4" cx="285.43" cy="457.06" r="6.24" transform="translate(-237.59 337.7) rotate(-45)"/><circle class="cls-4" cx="285.43" cy="457.06" r="1.4" transform="translate(-237.59 337.7) rotate(-45)"/></g><path class="cls-5" d="M279.22,287.53l3.33,3.33-7.2,4.19,15.06-1.41-4.27-4.38,7.6-4.81q-2,.34-4,0.72C286.11,285.88,282.59,286.68,279.22,287.53Z" transform="translate(2 2)"/><path class="cls-5" d="M464,451.5l-3.33,3.33-4.19-7.2,1.41,15.06,4.38-4.27,4.81,7.6q-0.34-2-.72-4C465.66,458.39,464.87,454.87,464,451.5Z" transform="translate(2 2)"/><path class="cls-5" d="M369,375.23l3.33-3.33,4.19,7.2L375.13,364l-4.38,4.27-4.81-7.6q0.34,2,.72,4C367.37,368.35,368.16,371.87,369,375.23Z" transform="translate(2 2)"/></g></svg>