<svg id="Layer_1" data-name="Layer 1" xmlns="http://www.w3.org/2000/svg" viewBox="0 0 400 400"><defs><style>.cls-1{fill:#e64c3c;}</style></defs><title>facebook</title><path class="cls-1" d="M377.92,0H22.08A22.07,22.07,0,0,0,0,22.08V377.92A22.08,22.08,0,0,0,22.08,400H213.65V245.1H161.53V184.73h52.13V140.21c0-51.66,31.55-79.8,77.64-79.8a427.77,427.77,0,0,1,46.58,2.38v54h-32c-25.06,0-29.92,11.91-29.92,29.39v38.54h59.78L328,245.1H276V400H377.92A22.08,22.08,0,0,0,400,377.92V22.08A22.08,22.08,0,0,0,377.92,0Z" transform="translate(0)"/></svg>