<svg id="Layer_1" data-name="Layer 1" xmlns="http://www.w3.org/2000/svg" viewBox="0 0 400 400"><defs><style>.cls-1{fill:#e64c3c;}</style></defs><title>indeed</title><path class="cls-1" d="M359.5,0H40.5A40.62,40.62,0,0,0,0,40.5v319A40.62,40.62,0,0,0,40.5,400h319A40.62,40.62,0,0,0,400,359.5V40.5A40.62,40.62,0,0,0,359.5,0ZM118,340H59V149.5h59V340ZM88.5,121.5a33,33,0,1,1,33-33A33,33,0,0,1,88.5,121.5ZM341,262.5c-0.08,32.93-.38,64.43-0.52,77.5H278.61V218.18c-1.65-5.55-3.5-10.9-8.61-15.18-6.46-5.41-14.07-5.7-18.32-5.87-1.33-.05-11.86-0.34-21.18,5.37-9.83,6-16.08,17.36-17.5,30.46V340H155.5V149.5H213v12.31a75.12,75.12,0,0,1,20-12.31,79.28,79.28,0,0,1,47.5-3.5A78.38,78.38,0,0,1,312,161.5c2.87,2.36,20.42,17.25,25.91,41.5,1.43,6.32,1.82,15.21,2.58,33C341,248.68,341,258.27,341,262.5Z"/></svg>