<?xml version="1.0" encoding="utf-8"?>
<!-- Generator: Adobe Illustrator 19.2.1, SVG Export Plug-In . SVG Version: 6.00 Build 0)  -->
<svg version="1.1" id="Layer_1" xmlns="http://www.w3.org/2000/svg" xmlns:xlink="http://www.w3.org/1999/xlink" x="0px" y="0px"
	 viewBox="0 0 410.7 410.7" style="enable-background:new 0 0 410.7 410.7;" xml:space="preserve">
<style type="text/css">
	.st0{fill:#E64C3C;}
</style>
<title>logo</title>
<g>
	<path class="st0" d="M195.4,294.8c21,0,41.6-1.3,41.6-16.5c0-13.7-22.4-14.8-33.2-15.4l-1.9-0.1c-2.6-0.1-5.1-0.3-7.4-0.4
		c-7.1-0.4-12.7-0.8-17.2-0.8c-8.4,0-14.9,1-14.9,13.9c0,4.3,1.1,8.8,2.7,11.1l0,0C168.7,292,178.9,294.8,195.4,294.8z"/>
	<path class="st0" d="M203.8,151.2c-5.1,0-9.6,2.4-9.6,30.9c0,26,3.3,28.7,10.8,28.7c2.8,0,5.2-1.4,7.2-4.2
		c0.3-0.4,1.8-3.6,1.8-19.3C214.1,151.2,211.1,151.2,203.8,151.2z"/>
	<path class="st0" d="M205.3,5.7C95.1,5.7,5.7,95.1,5.7,205.3S95.1,405,205.3,405S405,315.6,405,205.3S315.6,5.7,205.3,5.7z
		 M263.4,278.3c-13.1,21.9-53,21.9-68,21.9c-45.6,0-52.4-14.7-52.4-23.5c0-5.1,2.5-13.9,18-18.5c-6.1-3.4-13.6-9.6-13.6-21.7
		c0-13.5,8.6-22.6,25.5-27.1c-9.5-4.8-19.4-12.9-19.4-28.3c0-21,26.2-35.1,50.6-35.1c2.9,0,5.8,0.2,8.9,0.5c-1.3-3.7-2-7.7-2-11.4
		c0-14.5,11.3-24.7,27.5-24.7c0.6,0,1.2,0,1.7,0l0.2,0l-0.1,0c15,0.9,19,12.1,19,18.8c0,10.8-8.5,18.9-19.7,18.9
		c-10.8,0-18.9-7.9-18.9-18.3c0-3.3,0.8-6.5,2.3-9.3c-6.2,4.8-6.8,11.9-6.8,14.5c0,9.3,5.6,11.9,13.3,15.6c6.2,2.9,13.2,6.3,19,13.7
		c3.4,4.5,5.2,9.9,5.2,15.7c0,20.4-21.6,35.7-50.2,35.7c-7.9,0-11.9-0.8-15.2-1.4c-2.2-0.4-4-0.8-6.5-0.8c-6.3,0-7.2,3.7-7.2,5.8
		c0,4.7,6.4,7,19.1,7h22.1c24.1,0,51.8,3.8,51.8,33.7C267.7,267,266.1,273.8,263.4,278.3z"/>
</g>
</svg>
