<svg xmlns="http://www.w3.org/2000/svg" viewBox="0 0 606.71 597.67"><defs><style>.a{fill:#e54d3c;}</style></defs><title>rotateEffect</title><line class="a" x1="303.63" y1="12.07" x2="303.63" y2="66.07"/><path class="a" d="M437.83,154.61v54c0,16.09,25,16.11,25,0v-54c0-16.09-25-16.11-25,0h0Z" transform="translate(-146.7 -142.53)"/><line class="a" x1="113.67" y1="80.97" x2="148.38" y2="122.34"/><path class="a" d="M251.54,232.34l34.71,41.36c4.34,5.17,13.2,4.48,17.68,0,5.12-5.12,4.35-12.49,0-17.68l-34.71-41.36c-4.34-5.17-13.2-4.48-17.68,0-5.12,5.12-4.35,12.49,0,17.68h0Z" transform="translate(-146.7 -142.53)"/><line class="a" x1="12.45" y1="255.85" x2="65.62" y2="265.23"/><path class="a" d="M155.83,410.43L209,419.81c6.64,1.17,13.47-1.79,15.38-8.73,1.66-6-2-14.2-8.73-15.38l-53.18-9.38c-6.64-1.17-13.47,1.79-15.38,8.73-1.66,6,2,14.2,8.73,15.38h0Z" transform="translate(-146.7 -142.53)"/><line class="a" x1="47.31" y1="454.88" x2="94.08" y2="427.88"/><path class="a" d="M200.32,608.2l46.76-27c13.93-8,1.35-29.65-12.62-21.59l-46.76,27c-13.93,8-1.35,29.65,12.62,21.59h0Z" transform="translate(-146.7 -142.53)"/><line class="a" x1="201.96" y1="584.94" x2="220.42" y2="534.2"/><path class="a" d="M360.71,730.79L379.18,680c2.31-6.34-2.59-13.69-8.73-15.38-7-1.91-13.06,2.36-15.38,8.73l-18.47,50.74c-2.31,6.34,2.59,13.69,8.73,15.38,7,1.91,13.06-2.36,15.38-8.73h0Z" transform="translate(-146.7 -142.53)"/><line class="a" x1="404.02" y1="585.16" x2="385.55" y2="534.42"/><path class="a" d="M562.77,724.37l-18.47-50.74c-2.31-6.34-8.49-10.62-15.38-8.73-6.12,1.68-11.05,9-8.73,15.38L538.67,731c2.31,6.34,8.49,10.62,15.38,8.73,6.12-1.68,11.05-9,8.73-15.38h0Z" transform="translate(-146.7 -142.53)"/><line class="a" x1="558.95" y1="455.45" x2="512.19" y2="428.45"/><path class="a" d="M712,587.19l-46.76-27c-14-8.06-26.56,13.54-12.62,21.59l46.76,27c14,8.06,26.56-13.54,12.62-21.59h0Z" transform="translate(-146.7 -142.53)"/><line class="a" x1="594.26" y1="256.5" x2="541.08" y2="265.88"/><path class="a" d="M737.64,387l-53.18,9.38c-6.65,1.17-10.4,9.31-8.73,15.38,1.93,7,8.7,9.91,15.38,8.73l53.18-9.38c6.65-1.17,10.4-9.31,8.73-15.38-1.93-7-8.7-9.91-15.38-8.73h0Z" transform="translate(-146.7 -142.53)"/><line class="a" x1="493.43" y1="81.4" x2="458.72" y2="122.76"/><path class="a" d="M631.29,215.09l-34.71,41.36c-4.34,5.17-5.07,12.61,0,17.68,4.46,4.46,13.32,5.2,17.68,0L649,232.77c4.34-5.17,5.07-12.61,0-17.68-4.46-4.46-13.32-5.2-17.68,0h0Z" transform="translate(-146.7 -142.53)"/></svg>