<?xml version="1.0" encoding="utf-8"?>
<!-- Generator: Adobe Illustrator 19.2.1, SVG Export Plug-In . SVG Version: 6.00 Build 0)  -->
<svg version="1.1" id="Layer_1" xmlns="http://www.w3.org/2000/svg" xmlns:xlink="http://www.w3.org/1999/xlink" x="0px" y="0px"
	 viewBox="0 0 580.5 1208.9" style="enable-background:new 0 0 580.5 1208.9;" xml:space="preserve">
<style type="text/css">
	.st0{fill:#E64C3C;}
	.st1{fill:none;stroke:#E64C3C;stroke-width:4;stroke-miterlimit:10;enable-background:new    ;}
	.st2{fill:#FFFFFF;}
	.st3{fill:none;}
</style>
<title>skillset</title>
<path class="st0" d="M263.9,270.5c-14.8,0-26.8-12-26.8-26.8s12-26.8,26.8-26.8c14.8,0,26.8,12,26.8,26.8l0,0
	C290.7,258.4,278.7,270.5,263.9,270.5z M263.9,220.5c-12.8,0-23.1,10.4-23.1,23.1s10.4,23.1,23.1,23.1s23.1-10.4,23.1-23.1l0,0
	C286.9,230.9,276.6,220.6,263.9,220.5L263.9,220.5z"/>
<path class="st0" d="M252.3,256v-17.7h3v1.5c0.7-1.2,2-1.9,3.3-1.8c0.7,0,1.4,0.1,2.1,0.4c0.6,0.3,1.2,0.7,1.6,1.3
	c0.5,0.6,0.8,1.3,1.1,2c0.3,0.9,0.4,1.8,0.4,2.7c0,0.8-0.1,1.7-0.3,2.5c-0.2,0.7-0.5,1.4-1,2c-0.4,0.5-0.9,1-1.5,1.3
	c-0.6,0.3-1.4,0.5-2.1,0.5c-1.4,0-2.8-0.7-3.6-1.9v7.2h-3.1L252.3,256z M257.9,248c1.8,0,2.7-1.2,2.7-3.7c0-0.9-0.2-1.9-0.8-2.6
	c-0.4-0.6-1.2-1-2-1c-0.8,0-1.5,0.4-1.9,1c-0.5,0.7-0.8,1.6-0.8,2.5C255.3,246.7,256.2,248,257.9,248L257.9,248z"/>
<path class="st0" d="M272.1,242c0-0.5-0.3-0.9-0.6-1.2c-0.5-0.3-1-0.4-1.5-0.4c-0.5,0-1,0.1-1.5,0.2c-0.3,0.1-0.5,0.4-0.5,0.8
	c0,0.3,0.2,0.6,0.5,0.8c0.5,0.2,0.9,0.4,1.5,0.6l2.6,0.7c0.6,0.2,1.2,0.4,1.7,0.7c0.4,0.2,0.7,0.6,0.9,1c0.2,0.5,0.3,1.1,0.3,1.7
	c0,1.1-0.5,2-1.3,2.7c-1.2,0.8-2.6,1.2-4,1.1c-0.8,0-1.6-0.1-2.3-0.3c-0.6-0.2-1.2-0.5-1.8-0.8c-1-0.7-1.6-1.8-1.6-3h3.3
	c0,0.5,0.2,1,0.7,1.3c0.5,0.3,1.1,0.5,1.7,0.5c0.5,0,1.1-0.1,1.5-0.3c0.4-0.1,0.6-0.5,0.6-0.9c0.1-0.4-0.1-0.8-0.5-1
	c-0.5-0.2-0.9-0.4-1.5-0.5c-1-0.2-1.9-0.5-2.8-0.8c-0.6-0.2-1.2-0.5-1.7-0.9c-0.4-0.3-0.6-0.7-0.8-1.1c-0.1-0.4-0.2-0.9-0.2-1.4
	c0-0.4,0.1-0.9,0.3-1.3c0.2-0.4,0.5-0.8,0.9-1.1c0.5-0.3,1-0.6,1.6-0.7c0.8-0.2,1.6-0.3,2.4-0.3c1.3-0.1,2.7,0.2,3.8,1
	c0.8,0.7,1.3,1.8,1.3,2.9L272.1,242L272.1,242z"/>
<path class="st0" d="M263.9,406.5c-14.8,0-26.8-12-26.8-26.8s12-26.8,26.8-26.8c14.8,0,26.8,12,26.8,26.8l0,0
	C290.7,394.4,278.7,406.5,263.9,406.5z M263.9,356.5c-12.8,0-23.1,10.4-23.1,23.1s10.4,23.1,23.1,23.1s23.1-10.4,23.1-23.1l0,0
	C287,366.8,276.6,356.5,263.9,356.5z"/>
<path class="st0" d="M264.1,388.3c-0.1-0.3-0.2-0.7-0.2-1.1c-0.4,0.4-0.9,0.8-1.5,1c-0.7,0.3-1.4,0.4-2.1,0.4
	c-1.1,0.1-2.2-0.2-3-0.9c-0.7-0.6-1-1.5-1-2.4c0-0.7,0.1-1.4,0.4-2.1c0.3-0.5,0.7-0.9,1.1-1.2c0.5-0.3,1.1-0.5,1.7-0.6
	c0.7-0.1,1.4-0.3,2.2-0.4c0.6,0,1.1-0.2,1.6-0.5c0.5-0.4,0.6-1.1,0.2-1.6c-0.1-0.1-0.2-0.2-0.3-0.3c-0.5-0.2-1-0.4-1.5-0.3
	c-0.6-0.1-1.1,0.1-1.6,0.5c-0.3,0.4-0.5,0.8-0.6,1.3h-3c0-0.6,0.1-1.2,0.3-1.7c0.2-0.5,0.5-1,0.9-1.3c0.5-0.4,1-0.7,1.6-0.9
	c0.8-0.2,1.6-0.3,2.4-0.3c0.8,0,1.6,0.1,2.4,0.3c0.6,0.2,1.1,0.5,1.6,0.9c0.4,0.4,0.7,0.9,0.9,1.5c0.2,0.7,0.3,1.3,0.3,2v7.6
	L264.1,388.3L264.1,388.3z M263.8,382.5c-0.2,0.2-0.4,0.3-0.7,0.4c-0.4,0.1-0.9,0.2-1.3,0.3c-0.7,0.1-1.3,0.3-1.9,0.7
	c-0.3,0.3-0.5,0.7-0.5,1.2c0,0.7,0.5,1.3,1.2,1.4c0.1,0,0.2,0,0.3,0c0.4,0,0.8-0.1,1.1-0.2c0.7-0.3,1.2-0.7,1.5-1.4
	c0.2-0.3,0.2-0.7,0.2-1L263.8,382.5z"/>
<path class="st0" d="M268.4,374.9v-3h3.2v3H268.4z M268.4,388.3v-12h3.2v12H268.4z"/>
<path class="st0" d="M263.9,542.6c-14.8,0-26.8-12-26.8-26.8c0-14.8,12-26.8,26.8-26.8c14.8,0,26.8,12,26.8,26.8
	C290.7,530.6,278.7,542.6,263.9,542.6z M263.9,492.6c-12.8,0-23.1,10.4-23.1,23.1c0,12.8,10.4,23.1,23.1,23.1s23.1-10.4,23.1-23.1
	l0,0C287,502.9,276.6,492.6,263.9,492.6L263.9,492.6z"/>
<path class="st0" d="M256,511.1v-3h3.2v3H256z M256,524.5v-12h3.2v12H256z"/>
<path class="st0" d="M268.8,524.5V523c-0.7,1.2-2,1.9-3.3,1.8c-0.7,0-1.4-0.1-2.1-0.4c-0.6-0.3-1.2-0.7-1.6-1.3
	c-0.5-0.6-0.8-1.3-1.1-2c-0.3-0.9-0.4-1.8-0.4-2.7c0-0.8,0.1-1.7,0.3-2.5c0.2-0.7,0.5-1.4,1-2c0.4-0.5,0.9-1,1.5-1.3
	c0.6-0.3,1.4-0.5,2.1-0.5c1.4,0,2.8,0.7,3.6,1.9v-5.9h3.1v16.4h-3H268.8z M266.1,522.2c0.8,0,1.5-0.4,1.9-1c0.5-0.7,0.8-1.6,0.8-2.5
	c0-2.6-0.9-3.9-2.7-3.9c-1.8,0-2.7,1.2-2.7,3.7c0,0.9,0.2,1.9,0.8,2.6C264.6,521.8,265.3,522.2,266.1,522.2z"/>
<circle class="st0" cx="326.9" cy="256" r="8.7"/>
<circle class="st0" cx="353.8" cy="256" r="8.7"/>
<circle class="st0" cx="380.8" cy="256" r="8.7"/>
<circle class="st0" cx="407.7" cy="256" r="8.7"/>
<circle class="st0" cx="434.7" cy="256" r="8.7"/>
<circle class="st0" cx="461.6" cy="256" r="8.7"/>
<circle class="st0" cx="488.6" cy="256" r="8.7"/>
<circle class="st1" cx="515.5" cy="256" r="8.7"/>
<circle class="st1" cx="542.5" cy="256" r="8.7"/>
<circle class="st1" cx="569.4" cy="256" r="8.7"/>
<circle class="st0" cx="326.9" cy="397" r="8.7"/>
<circle class="st0" cx="353.8" cy="397" r="8.7"/>
<circle class="st0" cx="380.8" cy="397" r="8.7"/>
<circle class="st0" cx="407.7" cy="397" r="8.7"/>
<circle class="st0" cx="434.7" cy="397" r="8.7"/>
<circle class="st0" cx="461.6" cy="397" r="8.7"/>
<circle class="st0" cx="488.6" cy="397" r="8.7"/>
<circle class="st0" cx="515.5" cy="397" r="8.7"/>
<circle class="st0" cx="542.5" cy="397" r="8.7"/>
<circle class="st1" cx="569.4" cy="397" r="8.7"/>
<circle class="st0" cx="326.9" cy="528.1" r="8.7"/>
<circle class="st0" cx="353.8" cy="528.1" r="8.7"/>
<circle class="st0" cx="380.8" cy="528.1" r="8.7"/>
<circle class="st0" cx="407.7" cy="528.1" r="8.7"/>
<circle class="st0" cx="434.7" cy="528.1" r="8.7"/>
<circle class="st0" cx="461.6" cy="528.1" r="8.7"/>
<circle class="st1" cx="488.6" cy="528.1" r="8.7"/>
<circle class="st1" cx="515.5" cy="528.1" r="8.7"/>
<circle class="st1" cx="542.5" cy="528.1" r="8.7"/>
<circle class="st1" cx="569.4" cy="528.1" r="8.7"/>
<path class="st2" d="M316.4,222.9v-16.2h7.1c0.7,0,1.5,0.1,2.1,0.4c0.6,0.3,1.2,0.6,1.6,1.1c0.4,0.5,0.8,1.1,1,1.7
	c0.2,0.6,0.4,1.3,0.4,2c0,0.7-0.1,1.4-0.4,2c-0.2,0.6-0.6,1.1-1,1.6c-0.5,0.4-1,0.8-1.6,1c-0.7,0.3-1.4,0.4-2.1,0.4h-3.8v5.9h-3.4
	V222.9z M323,214.3c0.8,0.1,1.5-0.2,2.1-0.7c0.4-0.5,0.7-1.1,0.6-1.7c0-0.6-0.2-1.2-0.6-1.7c-0.6-0.5-1.3-0.7-2.1-0.7h-3.2v4.8H323z
	"/>
<path class="st2" d="M337,222.9v-7.4c0.1-0.7-0.1-1.3-0.5-1.9c-0.4-0.4-1-0.6-1.6-0.5c-0.3,0-0.7,0.1-1,0.2
	c-0.3,0.1-0.6,0.4-0.8,0.6c-0.2,0.3-0.4,0.6-0.5,0.9c-0.1,0.4-0.2,0.7-0.2,1.1v6.9h-3.2v-16.4h3.2v6c0.1-0.3,0.3-0.5,0.5-0.7
	c0.2-0.2,0.5-0.4,0.8-0.6c0.3-0.2,0.7-0.3,1-0.4c0.4-0.1,0.8-0.2,1.2-0.1c1.1,0,2.2,0.3,3,1c0.8,0.7,1.2,1.7,1.2,2.8v8.5L337,222.9
	L337,222.9z"/>
<path class="st2" d="M347.3,223.2c-0.9,0-1.8-0.1-2.6-0.5c-1.5-0.6-2.6-1.8-3.1-3.3c-0.3-0.8-0.4-1.7-0.4-2.6c0-0.9,0.1-1.8,0.4-2.6
	c0.3-0.7,0.7-1.4,1.2-2c0.5-0.6,1.2-1,1.9-1.3c0.8-0.3,1.7-0.5,2.6-0.5c0.9,0,1.7,0.1,2.5,0.5c1.5,0.6,2.6,1.8,3.1,3.3
	c0.3,0.8,0.4,1.7,0.4,2.6c0,0.9-0.1,1.8-0.4,2.6c-0.3,0.7-0.7,1.4-1.2,2c-0.5,0.6-1.2,1-1.9,1.3
	C349.1,223.1,348.2,223.2,347.3,223.2z M347.3,220.5c1.9,0,2.9-1.2,2.9-3.6c0-2.4-1-3.6-2.9-3.6c-1.9,0-2.9,1.2-2.9,3.6
	C344.4,219.3,345.4,220.5,347.3,220.5L347.3,220.5z"/>
<path class="st2" d="M361.3,215h2.9v3.4c0,0.6-0.1,1.2-0.3,1.8c-0.2,0.6-0.5,1.1-0.9,1.5c-0.4,0.5-0.9,0.8-1.5,1.1
	c-0.7,0.3-1.4,0.4-2.2,0.4c-0.8,0-1.5-0.1-2.2-0.4c-0.6-0.2-1.1-0.6-1.5-1c-0.4-0.4-0.7-1-0.9-1.5c-0.2-0.6-0.3-1.2-0.3-1.9v-10.8
	h3.1v3.2h6.6v2.2h-6.6v4.9c0,0.6,0.1,1.2,0.4,1.8c0.3,0.4,0.9,0.7,1.4,0.6c0.5,0,1.1-0.2,1.4-0.6c0.3-0.5,0.5-1.1,0.5-1.7L361.3,215
	L361.3,215z"/>
<path class="st2" d="M371.2,223.2c-0.9,0-1.8-0.1-2.6-0.5c-1.5-0.6-2.6-1.8-3.1-3.3c-0.3-0.8-0.4-1.7-0.4-2.6c0-0.9,0.1-1.8,0.4-2.6
	c0.3-0.7,0.7-1.4,1.2-2c0.5-0.6,1.2-1,1.9-1.3c0.8-0.3,1.7-0.5,2.6-0.5c0.9,0,1.7,0.1,2.5,0.5c1.5,0.6,2.6,1.8,3.1,3.3
	c0.3,0.8,0.4,1.7,0.4,2.6c0,0.9-0.1,1.8-0.4,2.6c-0.3,0.7-0.7,1.4-1.2,2c-0.5,0.6-1.2,1-1.9,1.3C373,223.1,372.1,223.2,371.2,223.2z
	 M371.2,220.5c1.9,0,2.9-1.2,2.9-3.6c0-2.4-1-3.6-2.9-3.6c-1.9,0-2.9,1.2-2.9,3.6C368.3,219.3,369.3,220.5,371.2,220.5L371.2,220.5z
	"/>
<path class="st2" d="M387.4,211.5c0-0.7-0.4-1.4-0.9-1.9c-0.7-0.5-1.5-0.7-2.3-0.6c-1.9,0-2.9,0.7-2.9,2c0,0.5,0.2,0.9,0.6,1.2
	c0.6,0.4,1.2,0.7,1.9,0.8c1,0.2,1.9,0.5,2.7,0.7c0.7,0.2,1.4,0.4,2.1,0.7c0.4,0.1,0.7,0.3,1,0.5c0.3,0.2,0.6,0.5,0.8,0.8
	c0.2,0.4,0.4,0.8,0.5,1.2c0.1,0.5,0.2,1.1,0.2,1.7c0,0.7-0.2,1.4-0.5,2.1c-0.3,0.6-0.8,1.1-1.3,1.5c-0.6,0.4-1.2,0.8-2,1
	c-0.8,0.2-1.6,0.3-2.4,0.3c-1.9,0.1-3.7-0.3-5.3-1.4c-1.2-1-1.9-2.4-1.9-4h3.3c0,0.8,0.4,1.5,1,2c0.7,0.5,1.6,0.8,2.5,0.7
	c0.9,0.1,1.7-0.1,2.4-0.6c0.5-0.3,0.8-0.9,0.8-1.6c0-0.2,0-0.5-0.1-0.7c-0.1-0.2-0.2-0.4-0.4-0.6c-0.2-0.2-0.5-0.4-0.8-0.5
	c-0.4-0.2-0.8-0.3-1.3-0.4c-1.2-0.3-2.3-0.5-3.2-0.8c-0.8-0.2-1.5-0.6-2.2-1c-0.6-0.4-1-0.9-1.3-1.5c-0.3-0.7-0.4-1.4-0.4-2.2
	c0-0.6,0.1-1.3,0.4-1.9c0.2-0.6,0.6-1.1,1.1-1.5c0.6-0.4,1.2-0.8,1.9-1c0.8-0.3,1.7-0.4,2.6-0.4c0.9,0,1.8,0.1,2.6,0.4
	c0.7,0.2,1.4,0.6,2,1.1c0.6,0.5,1,1,1.3,1.7c0.3,0.7,0.5,1.4,0.5,2.2h-3.2L387.4,211.5z"/>
<path class="st2" d="M399.6,222.9v-7.4c0.1-0.7-0.1-1.3-0.5-1.9c-0.4-0.4-1-0.6-1.6-0.5c-0.3,0-0.7,0.1-1,0.2
	c-0.3,0.1-0.6,0.4-0.8,0.6c-0.2,0.3-0.4,0.6-0.5,0.9c-0.1,0.4-0.2,0.7-0.2,1.1v6.9H392v-16.4h3.2v6c0.1-0.3,0.3-0.5,0.5-0.7
	c0.2-0.2,0.5-0.4,0.8-0.6c0.3-0.2,0.7-0.3,1-0.4c0.4-0.1,0.8-0.2,1.2-0.1c1.1,0,2.2,0.3,3,1c0.8,0.7,1.2,1.7,1.2,2.8v8.5
	L399.6,222.9L399.6,222.9z"/>
<path class="st2" d="M410,223.2c-0.9,0-1.8-0.1-2.6-0.5c-1.5-0.6-2.7-1.8-3.2-3.3c-0.3-0.8-0.4-1.7-0.4-2.6c0-0.9,0.1-1.8,0.4-2.6
	c0.3-0.7,0.7-1.4,1.2-2c0.5-0.6,1.2-1,1.9-1.3c0.8-0.3,1.7-0.5,2.6-0.5c0.9,0,1.7,0.1,2.5,0.5c1.5,0.6,2.6,1.8,3.1,3.3
	c0.3,0.8,0.4,1.7,0.4,2.6c0,0.9-0.1,1.8-0.4,2.6c-0.3,0.7-0.7,1.4-1.2,2c-0.5,0.6-1.2,1-1.9,1.3C411.7,223.1,410.8,223.2,410,223.2z
	 M410,220.5c1.9,0,2.9-1.2,2.9-3.6c0-2.4-1-3.6-2.9-3.6c-1.9,0-2.9,1.2-2.9,3.6C407.1,219.3,408,220.5,410,220.5L410,220.5z"/>
<path class="st2" d="M417.1,228.5v-17.7h3v1.5c0.7-1.2,2-1.9,3.3-1.8c0.7,0,1.4,0.1,2.1,0.4c0.6,0.3,1.2,0.7,1.6,1.3
	c0.5,0.6,0.8,1.3,1.1,2c0.3,0.9,0.4,1.8,0.4,2.7c0,0.8-0.1,1.7-0.3,2.5c-0.2,0.7-0.5,1.4-1,2c-0.4,0.5-0.9,1-1.5,1.3
	c-0.6,0.3-1.4,0.5-2.1,0.5c-1.4,0-2.8-0.7-3.6-1.9v7.2L417.1,228.5L417.1,228.5z M422.7,220.5c1.8,0,2.7-1.2,2.7-3.7
	c0-0.9-0.2-1.9-0.8-2.6c-0.4-0.6-1.2-1-2-1c-0.8,0-1.5,0.4-1.9,1c-0.5,0.7-0.8,1.6-0.8,2.5C420.1,219.2,421,220.5,422.7,220.5
	L422.7,220.5z"/>
<path class="st2" d="M316.4,350.9v-3h3.2v3H316.4z M316.4,364.3v-12h3.2v12H316.4z"/>
<path class="st2" d="M320.9,364.3v-16.4h3.2v16.4H320.9z"/>
<path class="st2" d="M325.3,364.3v-16.4h3.2v16.4H325.3z"/>
<path class="st2" d="M337.5,364.3v-1.7c-0.8,1.3-2.2,2.1-3.7,2c-0.6,0-1.1-0.1-1.6-0.3c-0.5-0.2-0.9-0.5-1.3-0.9
	c-0.4-0.4-0.7-0.9-0.8-1.4c-0.2-0.6-0.3-1.2-0.3-1.8v-7.9h3.2v7.4c0,1.5,0.7,2.2,2,2.2c0.7,0,1.4-0.2,1.8-0.8c0.4-0.6,0.7-1.3,0.6-2
	v-6.9h3.1v12L337.5,364.3L337.5,364.3z"/>
<path class="st2" d="M349,355.9c0-0.5-0.3-0.9-0.6-1.2c-0.5-0.3-1-0.4-1.5-0.4c-0.5,0-1,0.1-1.5,0.2c-0.3,0.1-0.5,0.4-0.5,0.8
	c0,0.3,0.2,0.6,0.5,0.8c0.5,0.2,0.9,0.4,1.5,0.6l2.6,0.7c0.6,0.2,1.2,0.4,1.7,0.7c0.4,0.2,0.7,0.6,0.9,1c0.2,0.5,0.3,1.1,0.3,1.7
	c0,1.1-0.5,2-1.3,2.7c-1.2,0.8-2.6,1.2-4,1.1c-0.8,0-1.6-0.1-2.3-0.3c-0.6-0.2-1.2-0.5-1.8-0.8c-1-0.7-1.6-1.8-1.6-3h3.3
	c0,0.5,0.2,1,0.7,1.3c0.5,0.3,1.1,0.5,1.7,0.5c0.5,0,1.1-0.1,1.5-0.3c0.4-0.1,0.6-0.5,0.6-0.9c0.1-0.4-0.1-0.8-0.5-1
	c-0.5-0.2-0.9-0.4-1.5-0.5c-1-0.2-1.9-0.5-2.8-0.8c-0.6-0.2-1.2-0.5-1.7-0.9c-0.4-0.3-0.6-0.7-0.8-1.1c-0.1-0.4-0.2-0.9-0.2-1.4
	c0-0.4,0.1-0.9,0.3-1.3c0.2-0.4,0.5-0.8,0.9-1.1c0.5-0.3,1-0.6,1.6-0.7c0.8-0.2,1.6-0.3,2.4-0.3c1.3-0.1,2.7,0.2,3.8,1
	c0.8,0.7,1.3,1.8,1.3,2.9L349,355.9L349,355.9z"/>
<path class="st2" d="M359.9,356.4h3v3.4c0,0.6-0.1,1.2-0.3,1.8c-0.2,0.6-0.5,1.1-0.9,1.5c-0.4,0.5-0.9,0.8-1.5,1.1
	c-0.7,0.3-1.4,0.4-2.2,0.4c-0.8,0-1.5-0.1-2.2-0.4c-0.6-0.2-1.1-0.6-1.5-1c-0.4-0.4-0.7-1-0.9-1.5c-0.2-0.6-0.3-1.2-0.3-1.9V349h3.1
	v3.2h6.6v2.2h-6.6v4.9c0,0.6,0.1,1.2,0.4,1.8c0.3,0.4,0.9,0.7,1.4,0.6c0.5,0,1.1-0.2,1.4-0.6c0.3-0.5,0.5-1.1,0.5-1.7L359.9,356.4
	L359.9,356.4z"/>
<path class="st2" d="M364,364.3v-12h3v1.4c0.2-0.4,0.5-0.7,0.8-1c0.3-0.2,0.6-0.4,0.9-0.5c0.3-0.1,0.6-0.2,0.9-0.2c0.3,0,0.7,0,1,0
	h0.4v3.2c-0.3,0-0.6-0.1-0.9-0.1c-1.4-0.2-2.7,0.8-2.9,2.2c0,0.2,0,0.5,0,0.7v6.2L364,364.3L364,364.3z"/>
<path class="st2" d="M378.8,364.3c-0.1-0.3-0.2-0.7-0.2-1.1c-0.4,0.4-0.9,0.8-1.5,1c-0.7,0.3-1.4,0.4-2.1,0.4
	c-1.1,0.1-2.2-0.2-3-0.9c-0.7-0.6-1-1.5-1-2.4c0-0.7,0.1-1.4,0.4-2.1c0.3-0.5,0.7-0.9,1.2-1.2c0.5-0.3,1.1-0.5,1.7-0.6
	c0.7-0.1,1.4-0.3,2.2-0.4c0.6,0,1.1-0.2,1.6-0.5c0.5-0.4,0.6-1.1,0.2-1.6c-0.1-0.1-0.2-0.2-0.3-0.3c-0.5-0.2-1-0.4-1.5-0.3
	c-0.6-0.1-1.1,0.1-1.6,0.5c-0.3,0.4-0.5,0.8-0.6,1.3h-3c0-0.6,0.1-1.2,0.3-1.7c0.2-0.5,0.5-1,0.9-1.3c0.5-0.4,1-0.7,1.6-0.9
	c0.8-0.2,1.6-0.3,2.4-0.3c0.8,0,1.6,0.1,2.4,0.3c0.6,0.2,1.1,0.5,1.6,0.9c0.4,0.4,0.7,0.9,0.9,1.5c0.2,0.7,0.3,1.3,0.3,2v7.6
	L378.8,364.3L378.8,364.3z M378.5,358.4c-0.2,0.2-0.4,0.3-0.7,0.4c-0.4,0.1-0.9,0.2-1.3,0.3c-0.7,0.1-1.3,0.3-1.9,0.7
	c-0.3,0.3-0.5,0.7-0.5,1.2c0,0.7,0.5,1.3,1.2,1.4c0.1,0,0.2,0,0.3,0c0.4,0,0.8-0.1,1.1-0.2c0.7-0.3,1.2-0.7,1.5-1.4
	c0.2-0.3,0.2-0.7,0.2-1L378.5,358.4z"/>
<path class="st2" d="M389.8,356.4h3v3.4c0,0.6-0.1,1.2-0.3,1.8c-0.2,0.6-0.5,1.1-0.9,1.5c-0.4,0.5-0.9,0.8-1.5,1.1
	c-0.7,0.3-1.4,0.4-2.2,0.4c-0.8,0-1.5-0.1-2.2-0.4c-0.6-0.2-1.1-0.6-1.5-1c-0.4-0.4-0.7-1-0.9-1.5c-0.2-0.6-0.3-1.2-0.3-1.9V349h3.1
	v3.2h6.6v2.2h-6.6v4.9c0,0.6,0.1,1.2,0.4,1.8c0.3,0.4,0.9,0.7,1.4,0.6c0.5,0,1.1-0.2,1.4-0.6c0.3-0.5,0.5-1.1,0.5-1.7L389.8,356.4
	L389.8,356.4z"/>
<path class="st2" d="M399.8,364.6c-0.9,0-1.8-0.1-2.6-0.5c-1.5-0.6-2.6-1.8-3.1-3.3c-0.3-0.8-0.4-1.7-0.4-2.6c0-0.9,0.1-1.8,0.4-2.6
	c0.3-0.7,0.7-1.4,1.2-2c0.6-0.5,1.2-1,1.9-1.2c0.8-0.3,1.7-0.5,2.6-0.5c0.9,0,1.7,0.1,2.5,0.5c1.5,0.6,2.6,1.8,3.1,3.3
	c0.3,0.8,0.4,1.7,0.4,2.6c0,0.9-0.1,1.8-0.4,2.6c-0.3,0.7-0.7,1.4-1.2,2c-0.5,0.6-1.2,1-1.9,1.3
	C401.5,364.5,400.6,364.6,399.8,364.6z M399.8,361.9c1.9,0,2.9-1.2,2.9-3.6s-1-3.6-2.9-3.6c-1.9,0-2.9,1.2-2.9,3.6
	C396.8,360.7,397.8,361.9,399.8,361.9z"/>
<path class="st2" d="M406.9,364.3v-12h3v1.4c0.2-0.4,0.5-0.7,0.8-1c0.3-0.2,0.6-0.4,0.9-0.5c0.3-0.1,0.6-0.2,0.9-0.2
	c0.3,0,0.7,0,1,0h0.4v3.2c-0.3,0-0.6-0.1-0.9-0.1c-1.4-0.2-2.7,0.8-2.9,2.2c0,0.2,0,0.5,0,0.7v6.2L406.9,364.3L406.9,364.3z"/>
<path class="st2" d="M316.4,481.5v-3h3.2v3H316.4z M316.4,494.9v-12h3.2v12H316.4z"/>
<path class="st2" d="M328.5,494.9v-7.3c0.1-0.7-0.1-1.3-0.5-1.9c-0.4-0.4-1-0.5-1.6-0.5c-1.6,0-2.5,0.9-2.5,2.8v6.9h-3.2v-12h3v1.8
	c0.3-0.6,0.9-1.2,1.5-1.5c0.7-0.4,1.6-0.6,2.4-0.5c0.5,0,1.1,0.1,1.6,0.3c0.5,0.2,0.9,0.4,1.3,0.8c0.4,0.4,0.6,0.8,0.8,1.3
	c0.2,0.5,0.3,1.1,0.3,1.7v8.3L328.5,494.9L328.5,494.9z"/>
<path class="st2" d="M332.9,494.9v-16.2h6.3c1,0,2,0.2,3,0.5c0.9,0.3,1.7,0.9,2.4,1.6c0.7,0.7,1.2,1.6,1.5,2.5
	c0.4,1.1,0.6,2.2,0.6,3.3c0,1.1-0.2,2.3-0.5,3.4c-0.3,1-0.8,1.8-1.4,2.6c-0.6,0.7-1.4,1.3-2.2,1.7c-0.9,0.4-1.9,0.6-2.9,0.6
	L332.9,494.9L332.9,494.9z M339,492.2c1.2,0.1,2.4-0.4,3.2-1.4c0.8-1.2,1.1-2.7,1-4.1c0-0.8-0.1-1.6-0.2-2.3
	c-0.1-0.6-0.4-1.1-0.8-1.6c-0.4-0.4-0.9-0.7-1.4-0.9c-0.7-0.2-1.4-0.3-2.1-0.3h-2.5v10.6L339,492.2L339,492.2z"/>
<path class="st2" d="M350.6,489.8c0,0.8,0.3,1.6,0.8,2.2c0.5,0.5,1.2,0.8,1.9,0.8c0.5,0,1-0.1,1.4-0.3c0.4-0.2,0.7-0.6,0.8-1h3.3
	c-0.3,1.1-1,2.1-2,2.8c-1,0.7-2.1,1-3.3,1c-4,0-6-2.2-6-6.5c0-0.9,0.1-1.7,0.4-2.5c0.2-0.7,0.6-1.4,1.1-1.9c0.5-0.5,1.1-1,1.8-1.2
	c0.8-0.3,1.6-0.4,2.5-0.4c1.6-0.1,3.2,0.6,4.2,1.8c1.1,1.6,1.6,3.5,1.4,5.4L350.6,489.8L350.6,489.8z M355.6,487.8
	c0-0.4-0.1-0.8-0.2-1.2c-0.1-0.3-0.3-0.6-0.5-0.8c-0.2-0.2-0.5-0.4-0.8-0.5c-0.3-0.1-0.6-0.2-0.9-0.2c-0.6,0-1.2,0.2-1.6,0.7
	c-0.5,0.5-0.8,1.2-0.8,1.9L355.6,487.8L355.6,487.8z"/>
<path class="st2" d="M367,486.6c0-0.5-0.3-0.9-0.6-1.2c-0.5-0.3-1-0.4-1.5-0.4c-0.5,0-1,0.1-1.5,0.2c-0.3,0.1-0.5,0.4-0.5,0.8
	c0,0.3,0.2,0.6,0.5,0.8c0.5,0.2,0.9,0.4,1.5,0.6l2.6,0.7c0.6,0.2,1.2,0.4,1.7,0.7c0.4,0.2,0.7,0.6,0.9,1c0.2,0.5,0.3,1.1,0.3,1.7
	c0,1.1-0.5,2-1.3,2.7c-1.2,0.8-2.6,1.2-4,1.1c-0.8,0-1.6-0.1-2.3-0.3c-0.6-0.2-1.2-0.5-1.8-0.8c-1-0.7-1.6-1.8-1.6-3h3.3
	c0,0.5,0.2,1,0.7,1.3c0.5,0.3,1.1,0.5,1.7,0.5c0.5,0,1.1-0.1,1.5-0.3c0.4-0.1,0.6-0.5,0.6-0.9c0.1-0.4-0.1-0.8-0.5-1
	c-0.5-0.2-0.9-0.4-1.5-0.5c-1-0.2-1.9-0.5-2.8-0.8c-0.6-0.2-1.2-0.5-1.7-0.9c-0.4-0.3-0.6-0.7-0.8-1.1c-0.1-0.4-0.2-0.9-0.2-1.4
	c0-0.4,0.1-0.9,0.3-1.3c0.2-0.4,0.5-0.8,0.9-1.1c0.5-0.3,1-0.6,1.6-0.7c0.8-0.2,1.6-0.3,2.4-0.3c1.3-0.1,2.7,0.2,3.8,1
	c0.8,0.7,1.3,1.8,1.3,2.9L367,486.6L367,486.6z"/>
<path class="st2" d="M371.2,481.5v-3h3.2v3H371.2z M371.2,494.9v-12h3.2v12H371.2z"/>
<path class="st2" d="M384.1,493.3c-0.2,0.6-0.7,1-1.2,1.3c-0.6,0.3-1.3,0.5-2.1,0.5c-0.9,0-1.7-0.1-2.5-0.5
	c-0.6-0.3-1.2-0.8-1.6-1.4c-0.4-0.6-0.7-1.3-0.9-2c-0.2-0.7-0.3-1.5-0.3-2.3c0-0.9,0.1-1.7,0.4-2.5c0.2-0.7,0.6-1.4,1.1-2
	c0.5-0.5,1-1,1.7-1.3c0.6-0.3,1.3-0.4,2-0.5c1.4-0.1,2.7,0.6,3.4,1.8v-1.5h3.2v12.2c0,0.8-0.1,1.6-0.5,2.4c-0.3,0.7-0.7,1.3-1.3,1.7
	c-0.6,0.5-1.2,0.8-1.9,1.1c-1.5,0.5-3.1,0.5-4.7,0c-0.7-0.2-1.3-0.6-1.8-1c-0.5-0.4-0.9-1-1.2-1.6c-0.3-0.7-0.5-1.4-0.4-2.1h3
	c0,0.6,0.2,1.3,0.7,1.7c0.5,0.4,1.2,0.6,1.9,0.6c0.8,0,1.5-0.2,2.1-0.7c0.6-0.5,0.9-1.2,0.9-1.9L384.1,493.3L384.1,493.3z
	 M381.5,492.6c0.7,0,1.5-0.3,1.9-0.9c0.5-0.7,0.8-1.5,0.8-2.4c0-2.6-0.9-3.8-2.7-3.8c-1.8,0-2.7,1.2-2.7,3.7c0,0.9,0.2,1.8,0.8,2.6
	C380,492.2,380.7,492.6,381.5,492.6L381.5,492.6z"/>
<path class="st2" d="M396.2,494.9v-7.3c0.1-0.7-0.1-1.3-0.5-1.9c-0.4-0.4-1-0.5-1.6-0.5c-1.6,0-2.5,0.9-2.5,2.8v6.9h-3.2v-12h3v1.8
	c0.3-0.6,0.9-1.2,1.5-1.5c0.7-0.4,1.6-0.6,2.4-0.5c0.5,0,1.1,0.1,1.6,0.3c0.5,0.2,0.9,0.4,1.3,0.8c0.4,0.4,0.6,0.8,0.8,1.3
	c0.2,0.5,0.3,1.1,0.3,1.7v8.3L396.2,494.9L396.2,494.9z"/>
<path class="st0" d="M263.9,809.5c-14.8,0-26.8-12-26.8-26.8s12-26.8,26.8-26.8c14.8,0,26.8,12,26.8,26.8
	C290.7,797.4,278.7,809.5,263.9,809.5z M263.9,759.5c-12.8,0-23.1,10.4-23.1,23.1s10.4,23.1,23.1,23.1s23.1-10.4,23.1-23.1l0,0
	C287,769.8,276.6,759.5,263.9,759.5z"/>
<path class="st0" d="M263.9,945.4c-14.8,0-26.8-12-26.8-26.8c0-14.8,12-26.8,26.8-26.8c14.8,0,26.8,12,26.8,26.8
	C290.7,933.4,278.7,945.4,263.9,945.4z M263.9,895.4c-12.8,0-23.1,10.4-23.1,23.1s10.4,23.1,23.1,23.1s23.1-10.4,23.1-23.1l0,0
	C287,905.7,276.6,895.4,263.9,895.4L263.9,895.4z"/>
<path class="st0" d="M263.9,1081.5c-14.8,0-26.8-12-26.8-26.8c0-14.8,12-26.8,26.8-26.8c14.8,0,26.8,12,26.8,26.8l0,0
	C290.7,1069.4,278.7,1081.5,263.9,1081.5z M263.9,1031.5c-12.8,0-23.1,10.4-23.1,23.1s10.4,23.1,23.1,23.1s23.1-10.4,23.1-23.1l0,0
	C286.9,1041.9,276.6,1031.6,263.9,1031.5L263.9,1031.5z"/>
<circle class="st0" cx="325.1" cy="795" r="8.7"/>
<circle class="st0" cx="352" cy="795" r="8.7"/>
<circle class="st0" cx="379" cy="795" r="8.7"/>
<circle class="st0" cx="405.9" cy="795" r="8.7"/>
<circle class="st0" cx="432.9" cy="795" r="8.7"/>
<circle class="st0" cx="459.8" cy="795" r="8.7"/>
<circle class="st0" cx="486.7" cy="795" r="8.7"/>
<circle class="st0" cx="513.7" cy="795" r="8.7"/>
<circle class="st0" cx="540.6" cy="795" r="8.7"/>
<circle class="st0" cx="567.6" cy="795" r="8.7"/>
<circle class="st0" cx="325.1" cy="935.9" r="8.7"/>
<circle class="st0" cx="352" cy="935.9" r="8.7"/>
<circle class="st0" cx="379" cy="935.9" r="8.7"/>
<circle class="st0" cx="405.9" cy="935.9" r="8.7"/>
<circle class="st0" cx="432.9" cy="935.9" r="8.7"/>
<circle class="st0" cx="459.8" cy="935.9" r="8.7"/>
<circle class="st0" cx="486.7" cy="935.9" r="8.7"/>
<circle class="st0" cx="513.7" cy="935.9" r="8.7"/>
<circle class="st0" cx="540.6" cy="935.9" r="8.7"/>
<circle class="st1" cx="567.6" cy="935.9" r="8.7"/>
<circle class="st0" cx="325.1" cy="1067.1" r="8.7"/>
<circle class="st0" cx="352" cy="1067.1" r="8.7"/>
<circle class="st0" cx="379" cy="1067.1" r="8.7"/>
<circle class="st0" cx="405.9" cy="1067.1" r="8.7"/>
<circle class="st0" cx="432.9" cy="1067.1" r="8.7"/>
<circle class="st0" cx="459.8" cy="1067.1" r="8.7"/>
<circle class="st0" cx="486.7" cy="1067.1" r="8.7"/>
<circle class="st1" cx="513.7" cy="1067.1" r="8.7"/>
<circle class="st1" cx="540.6" cy="1067.1" r="8.7"/>
<circle class="st1" cx="567.6" cy="1067.1" r="8.7"/>
<path class="st2" d="M326.6,765.1v-7.3h-6.3v7.3h-3.4v-16.2h3.4v6.1h6.3v-6.1h3.4v16.2H326.6z"/>
<path class="st2" d="M335.5,765.1v-13.3h-4.9v-2.8h13.1v2.8h-4.9v13.3H335.5z"/>
<path class="st2" d="M356.9,765.1V754l-3,11.1h-3.4l-3-11v11h-3.1v-16.2h5l2.9,11.8l2.8-11.8h4.9v16.2H356.9L356.9,765.1z"/>
<path class="st2" d="M361.2,765.1v-16.2h3.4v13.2h8v2.9L361.2,765.1L361.2,765.1z"/>
<path class="st2" d="M379.4,758.7l0.3-9.8h10v2.7h-7.2l-0.2,4.3c0.4-0.4,0.9-0.8,1.5-0.9c0.6-0.2,1.2-0.2,1.7-0.2
	c0.6,0,1.3,0.1,1.8,0.3c0.6,0.2,1.1,0.6,1.5,1c0.4,0.5,0.8,1,1,1.6c0.3,0.7,0.4,1.4,0.4,2.2c0,0.8-0.1,1.6-0.4,2.4
	c-0.3,0.7-0.6,1.3-1.1,1.8c-0.5,0.5-1.1,0.9-1.8,1.2c-0.7,0.3-1.5,0.4-2.3,0.4c-0.7,0-1.4-0.1-2.1-0.3c-0.6-0.2-1.2-0.6-1.7-1
	c-0.5-0.4-0.9-0.9-1.2-1.5c-0.3-0.6-0.4-1.2-0.5-1.9h3.2c0,0.6,0.2,1.1,0.6,1.6c0.4,0.4,1,0.6,1.5,0.6c0.7,0.1,1.4-0.2,1.9-0.8
	c0.4-0.7,0.6-1.4,0.5-2.2c0-0.7-0.1-1.4-0.5-2c-0.4-0.5-1-0.8-1.7-0.7c-0.5,0-1,0.1-1.4,0.3c-0.4,0.3-0.7,0.6-0.9,1L379.4,758.7
	L379.4,758.7z"/>
<path class="st2" d="M331.2,900.2c-0.2,0.9-0.4,1.7-0.9,2.5c-0.4,0.7-0.9,1.4-1.5,1.9c-0.6,0.5-1.3,1-2.1,1.2
	c-0.8,0.3-1.7,0.4-2.6,0.4c-1,0-2-0.2-3-0.5c-0.9-0.3-1.7-0.9-2.4-1.6c-0.7-0.8-1.2-1.7-1.6-2.6c-0.4-1.2-0.6-2.4-0.6-3.7
	c0-1.2,0.2-2.5,0.5-3.7c0.3-1,0.8-2,1.5-2.8c0.6-0.8,1.5-1.3,2.4-1.7c1-0.4,2.1-0.6,3.1-0.6c0.9,0,1.9,0.1,2.7,0.5
	c0.8,0.3,1.5,0.7,2.1,1.2c0.6,0.5,1.1,1.2,1.4,1.9c0.3,0.7,0.6,1.5,0.6,2.3h-3.4c-0.2-0.8-0.6-1.6-1.3-2.2c-1.7-1.3-4-0.9-5.3,0.7
	c0,0,0,0,0,0c-1.3,2.6-1.3,5.7,0,8.4c0.7,1,1.8,1.6,3,1.5c0.9,0,1.7-0.3,2.4-0.8c0.7-0.6,1.1-1.5,1.3-2.3L331.2,900.2L331.2,900.2z"
	/>
<path class="st2" d="M340.9,894.3c0-0.7-0.4-1.4-0.9-1.8c-0.7-0.5-1.5-0.7-2.3-0.6c-1.9,0-2.9,0.7-2.9,2c0,0.5,0.2,0.9,0.6,1.2
	c0.6,0.4,1.2,0.7,1.9,0.8c1,0.2,1.9,0.5,2.7,0.7c0.7,0.2,1.4,0.4,2.1,0.7c0.4,0.1,0.7,0.3,1,0.6c0.3,0.2,0.6,0.5,0.8,0.8
	c0.2,0.4,0.4,0.8,0.5,1.2c0.1,0.5,0.2,1.1,0.2,1.7c0,0.7-0.2,1.4-0.5,2.1c-0.3,0.6-0.8,1.1-1.3,1.5c-0.6,0.4-1.2,0.8-2,1
	c-0.8,0.2-1.6,0.3-2.4,0.3c-1.9,0.1-3.7-0.3-5.3-1.4c-1.2-1-1.9-2.4-1.9-4h3.3c0,0.8,0.4,1.5,1,2c0.7,0.5,1.6,0.8,2.5,0.7
	c0.9,0.1,1.7-0.1,2.4-0.6c0.5-0.3,0.8-0.9,0.8-1.6c0-0.2,0-0.5-0.1-0.7c-0.1-0.2-0.2-0.4-0.4-0.6c-0.2-0.2-0.5-0.4-0.8-0.5
	c-0.4-0.2-0.8-0.3-1.3-0.4c-1.2-0.3-2.3-0.5-3.2-0.8c-0.8-0.2-1.5-0.6-2.2-1c-0.6-0.4-1-0.9-1.3-1.5c-0.3-0.7-0.4-1.4-0.4-2.2
	c0-0.6,0.1-1.3,0.4-1.9c0.2-0.6,0.6-1.1,1.1-1.5c0.6-0.4,1.2-0.8,1.9-1c0.8-0.3,1.7-0.4,2.6-0.4c0.9,0,1.8,0.1,2.6,0.4
	c0.7,0.2,1.4,0.6,2,1.1c0.6,0.5,1,1,1.3,1.7c0.3,0.7,0.5,1.4,0.5,2.2h-3.2L340.9,894.3z"/>
<path class="st2" d="M354.4,894.3c0-0.7-0.4-1.4-0.9-1.8c-0.7-0.5-1.5-0.7-2.3-0.6c-1.9,0-2.9,0.7-2.9,2c0,0.5,0.2,0.9,0.6,1.2
	c0.6,0.4,1.2,0.7,1.9,0.8c1,0.2,1.9,0.5,2.7,0.7c0.7,0.2,1.4,0.4,2.1,0.7c0.4,0.1,0.7,0.3,1,0.6c0.3,0.2,0.6,0.5,0.8,0.8
	c0.2,0.4,0.4,0.8,0.5,1.2c0.1,0.5,0.2,1.1,0.2,1.7c0,0.7-0.2,1.4-0.5,2.1c-0.3,0.6-0.8,1.1-1.3,1.5c-0.6,0.4-1.2,0.8-2,1
	c-0.8,0.2-1.6,0.3-2.4,0.3c-1.9,0.1-3.7-0.3-5.3-1.4c-1.2-1-1.9-2.4-1.9-4h3.3c0,0.8,0.4,1.5,1,2c0.7,0.5,1.6,0.8,2.5,0.7
	c0.9,0.1,1.7-0.1,2.4-0.6c0.5-0.3,0.8-0.9,0.8-1.6c0-0.2,0-0.5-0.1-0.7c-0.1-0.2-0.2-0.4-0.4-0.6c-0.2-0.2-0.5-0.4-0.8-0.5
	c-0.4-0.2-0.8-0.3-1.3-0.4c-1.2-0.3-2.3-0.5-3.2-0.8c-0.8-0.2-1.5-0.6-2.2-1c-0.6-0.4-1-0.9-1.3-1.5c-0.3-0.7-0.4-1.4-0.4-2.2
	c0-0.6,0.1-1.3,0.4-1.9c0.2-0.6,0.6-1.1,1.1-1.5c0.6-0.4,1.2-0.8,1.9-1c0.8-0.3,1.7-0.4,2.6-0.4c0.9,0,1.8,0.1,2.6,0.4
	c0.7,0.2,1.4,0.6,2,1.1c0.6,0.5,1,1,1.3,1.7c0.3,0.7,0.5,1.4,0.5,2.2h-3.2L354.4,894.3z"/>
<path class="st2" d="M323.4,1027.7h3.4v11.8c0.1,1.3-0.4,2.6-1.3,3.6c-1.1,1-2.5,1.5-4,1.3c-1.3,0.1-2.7-0.4-3.7-1.3
	c-0.9-1-1.4-2.4-1.3-3.8v-1.7h3.1v1.5c0,0.6,0.1,1.3,0.4,1.8c0.9,0.8,2.1,0.8,3,0c0.3-0.6,0.4-1.3,0.4-1.9L323.4,1027.7
	L323.4,1027.7z"/>
<path class="st2" d="M335.4,1043.8c-0.1-0.3-0.2-0.7-0.2-1.1c-0.4,0.4-0.9,0.8-1.5,1c-0.7,0.3-1.4,0.4-2.1,0.4
	c-1.1,0.1-2.2-0.2-3-0.9c-0.7-0.6-1-1.5-1-2.4c0-0.7,0.1-1.4,0.4-2.1c0.3-0.5,0.7-0.9,1.1-1.2c0.5-0.3,1.1-0.5,1.7-0.6
	c0.7-0.1,1.4-0.3,2.2-0.4c0.6,0,1.1-0.2,1.6-0.4c0.5-0.4,0.6-1.1,0.2-1.6c-0.1-0.1-0.2-0.2-0.3-0.3c-0.5-0.2-1-0.4-1.5-0.3
	c-0.6-0.1-1.1,0.1-1.6,0.5c-0.3,0.4-0.5,0.8-0.6,1.3H328c0-0.6,0.1-1.2,0.3-1.7c0.2-0.5,0.5-1,0.9-1.3c0.5-0.4,1-0.7,1.6-0.9
	c0.8-0.2,1.6-0.3,2.4-0.3c0.8,0,1.6,0.1,2.4,0.3c0.6,0.2,1.1,0.5,1.6,0.9c0.4,0.4,0.7,0.9,0.9,1.5c0.2,0.7,0.3,1.3,0.3,2v7.6
	L335.4,1043.8L335.4,1043.8z M335.2,1038c-0.2,0.2-0.4,0.3-0.7,0.4c-0.4,0.1-0.9,0.2-1.3,0.3c-0.7,0.1-1.3,0.3-1.9,0.7
	c-0.3,0.3-0.5,0.7-0.5,1.2c0,0.7,0.5,1.3,1.2,1.4c0.1,0,0.2,0,0.3,0c0.4,0,0.8-0.1,1.1-0.2c0.7-0.3,1.2-0.7,1.5-1.4
	c0.2-0.3,0.2-0.7,0.2-1L335.2,1038z"/>
<path class="st2" d="M342.8,1043.8l-4.3-12h3.5l2.5,7.9l2.5-7.9h3.3l-4.3,12H342.8z"/>
<path class="st2" d="M357.7,1043.8c-0.1-0.3-0.2-0.7-0.2-1.1c-0.4,0.4-0.9,0.8-1.5,1c-0.7,0.3-1.4,0.4-2.1,0.4
	c-1.1,0.1-2.2-0.2-3-0.9c-0.7-0.6-1-1.5-1-2.4c0-0.7,0.1-1.4,0.4-2.1c0.3-0.5,0.7-0.9,1.1-1.2c0.5-0.3,1.1-0.5,1.7-0.6
	c0.7-0.1,1.4-0.3,2.2-0.4c0.6,0,1.1-0.2,1.6-0.4c0.5-0.4,0.6-1.1,0.2-1.6c-0.1-0.1-0.2-0.2-0.3-0.3c-0.5-0.2-1-0.4-1.5-0.3
	c-0.6-0.1-1.1,0.1-1.6,0.5c-0.3,0.4-0.5,0.8-0.6,1.3h-2.9c0-0.6,0.1-1.2,0.3-1.7c0.2-0.5,0.5-1,0.9-1.3c0.5-0.4,1-0.7,1.6-0.9
	c0.8-0.2,1.6-0.3,2.4-0.3c0.8,0,1.6,0.1,2.4,0.3c0.6,0.2,1.1,0.5,1.6,0.9c0.4,0.4,0.7,0.9,0.9,1.5c0.2,0.7,0.3,1.3,0.3,2v7.6
	L357.7,1043.8L357.7,1043.8z M357.5,1038c-0.2,0.2-0.4,0.3-0.7,0.4c-0.4,0.1-0.9,0.2-1.3,0.3c-0.7,0.1-1.3,0.3-1.9,0.7
	c-0.3,0.3-0.5,0.7-0.5,1.2c0,0.7,0.5,1.3,1.2,1.4c0.1,0,0.2,0,0.3,0c0.4,0,0.8-0.1,1.1-0.2c0.7-0.3,1.2-0.7,1.5-1.4
	c0.2-0.3,0.2-0.7,0.2-1L357.5,1038z"/>
<path class="st2" d="M371,1032.5c0-0.7-0.4-1.4-0.9-1.8c-0.7-0.5-1.5-0.7-2.3-0.6c-1.9,0-2.9,0.7-2.9,2c0,0.5,0.2,0.9,0.6,1.2
	c0.6,0.4,1.2,0.7,1.9,0.8c1,0.2,1.9,0.5,2.7,0.7c0.7,0.2,1.4,0.4,2.1,0.7c0.4,0.1,0.7,0.3,1,0.6c0.3,0.2,0.6,0.5,0.8,0.8
	c0.2,0.4,0.4,0.8,0.5,1.2c0.1,0.5,0.2,1.1,0.2,1.7c0,0.7-0.2,1.4-0.5,2.1c-0.3,0.6-0.8,1.1-1.3,1.5c-0.6,0.4-1.2,0.8-2,0.9
	c-0.8,0.2-1.6,0.3-2.4,0.3c-1.9,0.1-3.7-0.3-5.3-1.4c-1.2-1-1.9-2.4-1.9-4h3.3c0,0.8,0.4,1.5,1,2c0.7,0.5,1.6,0.8,2.5,0.7
	c0.9,0.1,1.7-0.1,2.4-0.6c0.5-0.3,0.8-0.9,0.8-1.6c0-0.2,0-0.5-0.1-0.7c-0.1-0.2-0.2-0.4-0.4-0.6c-0.2-0.2-0.5-0.4-0.8-0.5
	c-0.4-0.2-0.8-0.3-1.3-0.4c-1.2-0.3-2.3-0.5-3.2-0.8c-0.8-0.2-1.5-0.6-2.2-1c-0.6-0.4-1-0.9-1.3-1.4c-0.3-0.7-0.4-1.4-0.4-2.2
	c0-0.6,0.1-1.3,0.4-1.9c0.2-0.6,0.6-1.1,1.1-1.5c0.6-0.4,1.2-0.8,1.9-1c0.8-0.3,1.7-0.4,2.6-0.4c0.9,0,1.8,0.1,2.6,0.4
	c0.7,0.2,1.4,0.6,2,1.1c0.6,0.5,1,1,1.3,1.7c0.3,0.6,0.5,1.3,0.6,2H371L371,1032.5z"/>
<path class="st2" d="M386.2,1039.5c-0.1,0.7-0.3,1.3-0.6,1.9c-0.3,0.6-0.7,1.1-1.2,1.5c-0.5,0.4-1.1,0.7-1.7,0.9
	c-0.6,0.2-1.3,0.3-2,0.3c-0.8,0-1.5-0.1-2.2-0.4c-0.7-0.3-1.3-0.7-1.7-1.2c-0.5-0.6-0.9-1.3-1.1-2c-0.3-0.9-0.4-1.9-0.4-2.8
	c0-0.9,0.1-1.9,0.4-2.8c0.2-0.7,0.6-1.4,1.1-1.9c0.5-0.5,1.1-0.9,1.8-1.1c0.7-0.2,1.5-0.4,2.3-0.4c0.7,0,1.4,0.1,2.1,0.3
	c0.6,0.2,1.2,0.5,1.7,0.9c0.5,0.4,0.9,0.9,1.1,1.5c0.3,0.6,0.5,1.2,0.5,1.9h-3.2c-0.1-0.6-0.3-1.1-0.7-1.4c-0.4-0.4-1-0.5-1.5-0.5
	c-0.3,0-0.6,0.1-1,0.2c-0.3,0.1-0.6,0.3-0.8,0.6c-0.2,0.3-0.4,0.7-0.5,1.1c-0.1,0.5-0.2,1.1-0.2,1.6c-0.1,1,0.2,2,0.7,2.9
	c0.4,0.6,1,0.9,1.6,0.9c0.6,0,1.1-0.2,1.6-0.5c0.5-0.4,0.7-0.9,0.8-1.5L386.2,1039.5L386.2,1039.5z"/>
<path class="st2" d="M387,1043.8v-12h3v1.4c0.2-0.4,0.5-0.7,0.8-0.9c0.3-0.2,0.6-0.4,0.9-0.5c0.3-0.1,0.6-0.2,0.9-0.2
	c0.3,0,0.6,0,1,0h0.4v3.2c-0.3,0-0.6-0.1-0.9-0.1c-1.4-0.2-2.7,0.8-2.9,2.2c0,0.2,0,0.5,0,0.7v6.2L387,1043.8L387,1043.8z"/>
<path class="st2" d="M394.8,1030.5v-3h3.2v3H394.8z M394.8,1043.9v-12h3.2v12H394.8z"/>
<path class="st2" d="M399.3,1049.5v-17.6h3v1.5c0.7-1.2,2-1.9,3.3-1.8c0.7,0,1.4,0.1,2.1,0.4c0.6,0.3,1.2,0.7,1.6,1.3
	c0.5,0.6,0.8,1.3,1.1,2c0.3,0.9,0.4,1.8,0.4,2.7c0,0.8-0.1,1.7-0.3,2.5c-0.2,0.7-0.5,1.4-1,2c-0.4,0.5-0.9,1-1.5,1.3
	c-0.6,0.3-1.4,0.5-2.1,0.4c-1.4,0-2.8-0.7-3.5-1.9v7.2h-3.1H399.3z M404.9,1041.4c1.8,0,2.7-1.2,2.7-3.7c0-0.9-0.2-1.9-0.8-2.6
	c-0.4-0.6-1.2-1-2-1c-0.8,0-1.5,0.3-1.9,0.9c-0.5,0.7-0.8,1.6-0.8,2.5C402.3,1040.2,403.2,1041.5,404.9,1041.4L404.9,1041.4z"/>
<path class="st2" d="M418.7,1035.9h2.9v3.4c0,0.6-0.1,1.2-0.3,1.8c-0.2,0.6-0.5,1.1-0.9,1.5c-0.4,0.5-0.9,0.8-1.5,1.1
	c-0.7,0.3-1.4,0.4-2.2,0.4c-0.8,0-1.5-0.1-2.2-0.4c-0.6-0.2-1.1-0.6-1.5-1c-0.4-0.4-0.7-1-0.9-1.5c-0.2-0.6-0.3-1.2-0.3-1.8v-10.7
	h3.1v3.2h6.6v2.2H415v4.9c0,0.6,0.1,1.2,0.4,1.8c0.3,0.4,0.9,0.7,1.4,0.6c0.5,0,1.1-0.2,1.4-0.6c0.3-0.5,0.5-1.1,0.5-1.7
	L418.7,1035.9L418.7,1035.9z"/>
<path class="st0" d="M263.9,1208.9c-14.8,0-26.8-12-26.8-26.8c0-14.8,12-26.8,26.8-26.8c14.8,0,26.8,12,26.8,26.8l0,0
	C290.7,1196.9,278.7,1208.9,263.9,1208.9z M263.9,1158.9c-12.8,0-23.1,10.4-23.1,23.1s10.4,23.1,23.1,23.1s23.1-10.4,23.1-23.1l0,0
	C287,1169.3,276.6,1159,263.9,1158.9L263.9,1158.9z"/>
<circle class="st0" cx="325.1" cy="1194.5" r="8.7"/>
<circle class="st0" cx="352" cy="1194.5" r="8.7"/>
<circle class="st0" cx="379" cy="1194.5" r="8.7"/>
<circle class="st0" cx="405.9" cy="1194.5" r="8.7"/>
<circle class="st0" cx="432.9" cy="1194.5" r="8.7"/>
<circle class="st0" cx="459.8" cy="1194.5" r="8.7"/>
<circle class="st1" cx="486.7" cy="1194.5" r="8.7"/>
<circle class="st1" cx="513.7" cy="1194.5" r="8.7"/>
<circle class="st1" cx="540.6" cy="1194.5" r="8.7"/>
<circle class="st1" cx="567.6" cy="1194.5" r="8.7"/>
<path class="st2" d="M316.9,1171.3v-16.2h7.1c0.7,0,1.5,0.1,2.1,0.4c0.6,0.3,1.2,0.6,1.6,1.1c0.4,0.5,0.8,1.1,1,1.7
	c0.2,0.6,0.4,1.3,0.4,2c0,0.7-0.1,1.4-0.4,2c-0.2,0.6-0.6,1.2-1,1.6c-0.5,0.4-1,0.8-1.6,1c-0.7,0.3-1.4,0.4-2.1,0.4h-3.8v5.9h-3.4
	V1171.3z M323.5,1162.6c0.8,0.1,1.5-0.2,2.1-0.7c0.4-0.5,0.7-1.1,0.6-1.7c0-0.6-0.2-1.2-0.6-1.7c-0.6-0.5-1.3-0.7-2.1-0.7h-3.2v4.8
	L323.5,1162.6L323.5,1162.6z"/>
<path class="st2" d="M339.5,1171.3v-7.3h-6.3v7.3h-3.4v-16.2h3.4v6.1h6.3v-6.1h3.4v16.2H339.5L339.5,1171.3z"/>
<path class="st2" d="M344,1171.3v-16.2h7.1c0.7,0,1.5,0.1,2.1,0.4c0.6,0.3,1.2,0.6,1.6,1.1c0.4,0.5,0.8,1.1,1,1.7
	c0.2,0.6,0.4,1.3,0.4,2c0,0.7-0.1,1.4-0.4,2c-0.2,0.6-0.6,1.2-1,1.6c-0.5,0.4-1,0.8-1.6,1c-0.7,0.3-1.4,0.4-2.1,0.4h-3.8v5.9H344
	V1171.3z M350.5,1162.6c0.8,0.1,1.5-0.2,2.1-0.7c0.4-0.5,0.7-1.1,0.6-1.7c0-0.6-0.2-1.2-0.6-1.7c-0.6-0.5-1.3-0.7-2.1-0.7h-3.2v4.8
	L350.5,1162.6L350.5,1162.6z"/>
<path class="st0" d="M34.3,214.7l-4,4c-2.3-2.5-5.5-4-8.9-4c-2.8-0.1-5.5,1-7.4,2.9c-2,1.9-3,4.4-3,7.1c0,2.8,1.1,5.5,3.1,7.4
	c2,2,4.8,3.1,7.7,3c1.8,0.1,3.5-0.4,5-1.3c1.5-0.9,2.6-2.3,3.3-3.9h-8.7v-5.4h15.1v1.3c0,2.6-0.7,5.2-2,7.5
	c-1.2,2.2-3.1,4.1-5.3,5.4c-2.3,1.3-5,1.9-7.6,1.9c-2.9,0.1-5.8-0.6-8.3-2c-2.4-1.3-4.4-3.4-5.8-5.8c-1.4-2.5-2.1-5.3-2.1-8.1
	c-0.1-3.9,1.4-7.6,4-10.4c3.1-3.5,7.5-5.4,12.2-5.3c2.5,0,5,0.5,7.3,1.5C30.8,211.4,32.7,212.9,34.3,214.7z"/>
<path class="st0" d="M39.8,217.6h4.8v2.8c0.4-1,1.2-1.9,2.1-2.5c0.8-0.6,1.8-0.9,2.8-0.9c0.8,0,1.6,0.2,2.3,0.6l-1.7,4.8
	c-0.5-0.3-1-0.4-1.6-0.5c-1,0.1-1.8,0.7-2.2,1.6c-0.6,1.1-0.9,3.1-0.9,6.3v1.1v9h-5.5L39.8,217.6L39.8,217.6z"/>
<path class="st0" d="M70.8,217.6h5.6v22.2h-5.6v-2.3c-0.9,0.9-2.1,1.7-3.3,2.2c-1.1,0.5-2.3,0.7-3.6,0.7c-2.8,0-5.6-1.2-7.4-3.3
	c-2.1-2.2-3.2-5.2-3.1-8.3c-0.1-3.1,0.9-6.1,3-8.4c1.9-2.1,4.6-3.3,7.4-3.3c1.3,0,2.6,0.3,3.8,0.8c1.2,0.5,2.3,1.3,3.2,2.3
	L70.8,217.6L70.8,217.6z M65,222.1c-1.6,0-3.2,0.6-4.3,1.8c-2.3,2.7-2.3,6.7,0,9.4c1.1,1.2,2.7,1.9,4.3,1.9c1.6,0,3.2-0.6,4.4-1.8
	c1.2-1.3,1.8-3,1.7-4.8c0.1-1.7-0.6-3.4-1.7-4.7C68.2,222.8,66.6,222.1,65,222.1z"/>
<path class="st0" d="M87.6,217.6v2.5c0.9-1,2-1.7,3.3-2.3c1.2-0.5,2.5-0.8,3.8-0.8c2.8,0,5.5,1.2,7.4,3.3c2.1,2.3,3.1,5.3,3,8.4
	c0.1,3.1-1,6.1-3.1,8.3c-1.9,2.1-4.6,3.4-7.4,3.3c-1.2,0-2.4-0.2-3.6-0.7c-1.2-0.5-2.3-1.3-3.3-2.2v10.5H82v-30.3H87.6L87.6,217.6z
	 M93.4,222.1c-1.6,0-3.2,0.6-4.4,1.8c-1.2,1.3-1.8,3-1.7,4.7c-0.1,1.8,0.5,3.5,1.7,4.8c1.1,1.2,2.7,1.9,4.4,1.8
	c1.6,0,3.2-0.6,4.3-1.9c1.2-1.3,1.8-3,1.8-4.7c0.1-1.7-0.5-3.4-1.7-4.7C96.7,222.8,95.1,222.1,93.4,222.1L93.4,222.1z"/>
<path class="st0" d="M109.7,209h5.5v10.8c1-0.9,2.1-1.6,3.3-2.1c1.1-0.5,2.2-0.7,3.4-0.7c2.1,0,4.1,0.8,5.6,2.3
	c1.4,1.6,2.1,3.7,1.9,5.8v14.7h-5.5v-9.7c0.1-1.8-0.1-3.5-0.4-5.2c-0.2-0.8-0.6-1.5-1.3-2c-0.6-0.5-1.4-0.7-2.2-0.7
	c-1.1,0-2.1,0.4-2.9,1.1c-0.9,0.8-1.4,1.9-1.7,3.1c-0.2,1.5-0.3,3-0.2,4.6v8.9h-5.5L109.7,209L109.7,209z"/>
<path class="st0" d="M136.9,208.5c0.9,0,1.9,0.4,2.5,1.1c0.7,0.7,1,1.6,1,2.6c0,0.9-0.3,1.9-1,2.5c-0.6,0.7-1.5,1.1-2.5,1
	c-1,0-1.9-0.4-2.5-1.1c-0.7-0.7-1-1.6-1-2.6C133.4,210.1,134.9,208.5,136.9,208.5z M134.1,217.6h5.6v22.2h-5.6V217.6L134.1,217.6z"
	/>
<path class="st0" d="M166.5,222.1l-4.6,2.5c-0.7-0.8-1.6-1.5-2.6-1.9c-1-0.4-2-0.6-3-0.5c-1.9-0.1-3.7,0.6-5.1,1.9
	c-1.3,1.2-2,3-1.9,4.8c-0.1,1.7,0.6,3.4,1.9,4.6c1.3,1.2,3.1,1.9,4.9,1.8c2.2,0.1,4.4-0.8,5.8-2.5l4.4,3c-2.4,3.1-5.7,4.6-10.1,4.6
	c-3.9,0-7-1.2-9.2-3.5c-4.5-4.5-4.5-11.8,0.1-16.3c0.8-0.8,1.7-1.5,2.7-2c2-1,4.2-1.6,6.5-1.5c2.1,0,4.1,0.4,5.9,1.3
	C163.9,219.2,165.4,220.5,166.5,222.1z"/>
<path class="st0" d="M6.6,259.9h6.8c4.4,0,7.6,0.5,9.7,1.6c2.2,1.2,4.1,3,5.2,5.3c2.4,4.6,2.7,10,0.9,14.9c-0.7,1.8-1.8,3.5-3.2,4.8
	c-1.2,1.2-2.7,2.1-4.4,2.6c-2.7,0.6-5.4,0.8-8.2,0.7H6.6V259.9L6.6,259.9z M12.3,265.4v18.9h2.6c1.9,0.1,3.9-0.2,5.7-0.9
	c1.3-0.7,2.3-1.7,2.9-3c0.8-1.6,1.2-3.4,1.1-5.2c0-3.2-0.9-5.7-2.7-7.4c-1.6-1.6-4.2-2.4-7.7-2.4L12.3,265.4L12.3,265.4z"/>
<path class="st0" d="M57.5,280.5H39.6c0.2,1.5,0.9,2.8,2.1,3.8c1.2,1,2.7,1.5,4.3,1.4c2,0,3.9-0.8,5.4-2.2l4.7,2.2
	c-1.1,1.6-2.5,2.8-4.2,3.7c-1.8,0.8-3.8,1.2-5.8,1.2c-3.2,0.1-6.3-1.1-8.5-3.3c-2.2-2.2-3.4-5.2-3.3-8.3c-0.1-3.1,1.1-6.2,3.3-8.4
	c2.1-2.2,5.1-3.4,8.2-3.4c3.2-0.1,6.3,1.1,8.5,3.4c2.3,2.4,3.4,5.6,3.3,8.9L57.5,280.5z M51.9,276.1c-0.4-1.2-1.1-2.3-2.2-3
	c-1.1-0.8-2.4-1.2-3.8-1.2c-1.5,0-2.9,0.4-4.1,1.3c-0.9,0.8-1.6,1.8-2,2.9L51.9,276.1L51.9,276.1z"/>
<path class="st0" d="M75.6,270.8l-3.4,3.5c-1.4-1.4-2.7-2.1-3.8-2.1c-0.5,0-1,0.1-1.5,0.4c-0.3,0.2-0.5,0.6-0.5,1
	c0,0.3,0.1,0.6,0.3,0.8c0.5,0.4,1.1,0.8,1.7,1l2,1c1.7,0.7,3.2,1.8,4.4,3.3c1.9,2.8,1.5,6.5-1,8.8c-1.6,1.4-3.7,2.1-5.8,2
	c-3.1,0.1-6-1.3-7.8-3.8l3.4-3.7c0.6,0.8,1.4,1.4,2.3,1.9c0.7,0.4,1.5,0.7,2.3,0.7c0.6,0,1.3-0.2,1.8-0.5c0.4-0.3,0.7-0.7,0.7-1.2
	c0-0.9-0.8-1.7-2.4-2.5l-1.9-0.9c-3.6-1.8-5.4-4.1-5.4-6.8c0-1.7,0.7-3.4,2-4.5c1.4-1.3,3.3-1.9,5.2-1.9
	C71.1,267.1,73.9,268.5,75.6,270.8z"/>
<path class="st0" d="M82.6,258.6c0.9,0,1.9,0.4,2.5,1.1c0.7,0.7,1,1.6,1,2.6c0,0.9-0.3,1.9-1,2.5c-0.6,0.7-1.5,1.1-2.5,1
	c-1,0-1.9-0.4-2.5-1.1c-0.7-0.7-1-1.6-1-2.6C79.1,260.2,80.6,258.6,82.6,258.6z M79.8,267.7h5.6V290h-5.6V267.7L79.8,267.7z"/>
<path class="st0" d="M106.8,267.7h5.6v19c0,3.8-0.8,6.5-2.3,8.3c-2,2.4-5.1,3.6-9.2,3.6c-1.9,0-3.7-0.2-5.5-0.8
	c-2.9-1-5.1-3.3-6-6.3h6.1c0.6,0.6,1.3,1.1,2.1,1.4c1,0.3,2,0.5,3,0.5c1.2,0.1,2.5-0.2,3.6-0.7c0.8-0.4,1.5-1,1.9-1.8
	c0.5-1.2,0.6-2.5,0.6-3.8c-0.9,0.9-1.9,1.6-3.1,2.1c-1.2,0.4-2.4,0.7-3.6,0.6c-2.9,0.1-5.6-1.1-7.6-3.2c-4.2-4.8-4.1-12,0.2-16.7
	c1.9-1.9,4.4-2.9,7.1-2.9c1.2,0,2.5,0.2,3.6,0.7c1.3,0.6,2.4,1.3,3.4,2.3L106.8,267.7L106.8,267.7z M101,272.4
	c-1.6,0-3.2,0.6-4.4,1.8c-1.1,1.2-1.8,2.8-1.7,4.4c-0.1,1.7,0.6,3.3,1.8,4.5c1.2,1.2,2.8,1.8,4.4,1.8c1.6,0.1,3.2-0.6,4.3-1.7
	c1.1-1.2,1.8-2.9,1.7-4.5c0.1-1.7-0.5-3.3-1.7-4.5C104.3,272.9,102.7,272.3,101,272.4L101,272.4z"/>
<path class="st0" d="M118,267.7h5.6v2.3c1-0.9,2.2-1.7,3.4-2.2c1-0.4,2.1-0.6,3.1-0.6c2.1,0,4.1,0.8,5.6,2.3
	c1.3,1.3,1.9,3.3,1.9,5.8V290h-5.5v-9.7c0.1-1.8-0.1-3.5-0.4-5.3c-0.2-0.8-0.6-1.5-1.2-2c-0.6-0.5-1.4-0.7-2.2-0.7
	c-1.1,0-2.1,0.4-2.9,1.1c-0.9,0.8-1.4,1.9-1.7,3.1c-0.2,1.5-0.3,3-0.2,4.5v8.9H118L118,267.7L118,267.7z"/>
<path class="st0" d="M4.3,749.5h5.6l4.3,19.2l5.4-19.2h4.8l5.4,19.2l4.3-19.2h5.6l-6.8,30h-5.5l-5.5-19.4l-5.4,19.4h-5.4L4.3,749.5z
	"/>
<path class="st0" d="M65.8,770H47.9c0.2,1.5,0.9,2.8,2.1,3.8c1.2,1,2.7,1.5,4.3,1.4c2,0,3.9-0.8,5.4-2.2l4.7,2.2
	c-1.1,1.6-2.5,2.8-4.2,3.7c-1.8,0.8-3.8,1.2-5.8,1.2c-3.2,0.1-6.3-1.1-8.5-3.3c-2.2-2.2-3.4-5.2-3.3-8.3c-0.1-3.1,1.1-6.2,3.3-8.4
	c2.1-2.2,5.1-3.4,8.2-3.4c3.2-0.1,6.3,1.1,8.5,3.4c2.3,2.4,3.4,5.6,3.3,8.9L65.8,770z M60.3,765.6c-0.4-1.2-1.1-2.3-2.2-3
	c-1.1-0.8-2.4-1.2-3.8-1.2c-1.5,0-2.9,0.4-4.1,1.3c-0.9,0.8-1.6,1.8-2,2.9L60.3,765.6L60.3,765.6z"/>
<path class="st0" d="M75.9,748.7v11c0.9-1,2-1.7,3.3-2.3c1.2-0.5,2.5-0.8,3.8-0.8c2.8,0,5.5,1.2,7.4,3.3c2.1,2.3,3.1,5.3,3,8.4
	c0.1,3.1-1,6.1-3.1,8.3c-1.9,2.1-4.6,3.4-7.4,3.3c-1.2,0-2.4-0.2-3.6-0.7c-1.2-0.5-2.3-1.3-3.3-2.2v2.4h-5.5v-30.8H75.9L75.9,748.7z
	 M81.7,761.8c-1.6,0-3.2,0.6-4.4,1.8c-1.2,1.3-1.8,3-1.7,4.7c-0.1,1.8,0.5,3.5,1.7,4.8c1.1,1.2,2.7,1.9,4.4,1.8
	c1.6,0,3.2-0.6,4.3-1.9c1.2-1.3,1.8-3,1.8-4.7c0.1-1.7-0.5-3.4-1.7-4.7C85,762.5,83.4,761.8,81.7,761.8z"/>
<path class="st0" d="M6.6,799.6h6.8c4.4,0,7.6,0.5,9.7,1.6c2.2,1.2,4.1,3,5.2,5.3c2.4,4.6,2.7,10,0.9,14.9c-0.7,1.8-1.8,3.5-3.2,4.8
	c-1.2,1.2-2.7,2.1-4.4,2.7c-2.7,0.6-5.4,0.8-8.2,0.7H6.6V799.6L6.6,799.6z M12.3,805.1v18.9h2.6c1.9,0.1,3.9-0.2,5.7-0.9
	c1.3-0.7,2.3-1.7,2.9-3c0.8-1.6,1.2-3.4,1.1-5.2c0-3.2-0.9-5.7-2.7-7.4c-1.6-1.6-4.2-2.4-7.7-2.4L12.3,805.1L12.3,805.1z"/>
<path class="st0" d="M57.5,820.2H39.6c0.2,1.5,0.9,2.8,2.1,3.8c1.2,1,2.7,1.5,4.3,1.4c2,0,3.9-0.8,5.4-2.2l4.7,2.2
	c-1.1,1.6-2.5,2.8-4.2,3.7c-1.8,0.8-3.8,1.2-5.8,1.2c-3.2,0.1-6.3-1.1-8.5-3.3c-2.2-2.2-3.4-5.2-3.3-8.3c-0.1-3.1,1.1-6.2,3.3-8.4
	c2.1-2.2,5.1-3.4,8.2-3.4c3.2-0.1,6.3,1.1,8.5,3.4c2.3,2.4,3.4,5.6,3.3,8.9L57.5,820.2z M51.9,815.8c-0.4-1.2-1.1-2.3-2.2-3
	c-1.1-0.8-2.4-1.2-3.8-1.2c-1.5,0-2.9,0.4-4.1,1.3c-0.9,0.8-1.6,1.8-2,2.9L51.9,815.8L51.9,815.8z"/>
<path class="st0" d="M75.6,810.5l-3.4,3.4c-1.4-1.4-2.7-2.1-3.8-2.1c-0.5,0-1,0.1-1.5,0.4c-0.3,0.2-0.5,0.6-0.5,1
	c0,0.3,0.1,0.6,0.3,0.8c0.5,0.4,1.1,0.8,1.7,1l2,1c1.7,0.7,3.3,1.9,4.5,3.3c1.9,2.8,1.5,6.5-1,8.8c-1.6,1.4-3.7,2.1-5.8,2
	c-3.1,0.1-6-1.3-7.8-3.8l3.4-3.7c0.6,0.8,1.4,1.4,2.3,1.8c0.7,0.4,1.5,0.7,2.3,0.7c0.6,0,1.3-0.2,1.8-0.5c0.4-0.3,0.7-0.7,0.7-1.2
	c0-0.9-0.8-1.7-2.4-2.5l-1.9-0.9c-3.6-1.8-5.4-4.1-5.4-6.8c0-1.7,0.7-3.4,2-4.5c1.4-1.3,3.3-1.9,5.2-1.9
	C71.1,806.9,73.8,808.2,75.6,810.5z"/>
<path class="st0" d="M82.6,798.3c0.9,0,1.9,0.4,2.5,1.1c0.7,0.7,1,1.6,1,2.6c0,0.9-0.3,1.9-1,2.5c-0.6,0.7-1.5,1.1-2.5,1.1
	c-1,0-1.9-0.4-2.5-1.1c-0.7-0.7-1-1.6-1-2.6C79.1,799.9,80.6,798.3,82.6,798.3z M79.8,807.5h5.6v22.2h-5.6V807.5z"/>
<path class="st0" d="M106.8,807.5h5.6v19c0,3.8-0.8,6.5-2.3,8.3c-2,2.4-5.1,3.6-9.2,3.6c-1.9,0-3.7-0.2-5.5-0.8
	c-2.9-1-5.1-3.3-6-6.3h6.1c0.6,0.6,1.3,1.1,2.1,1.4c1,0.3,2,0.5,3,0.5c1.2,0.1,2.5-0.2,3.6-0.7c0.8-0.4,1.5-1,1.9-1.8
	c0.5-1.2,0.6-2.5,0.6-3.8c-0.9,0.9-1.9,1.6-3.1,2.1c-1.2,0.4-2.4,0.7-3.6,0.6c-2.9,0.1-5.6-1.1-7.6-3.2c-4.2-4.8-4.1-12,0.2-16.7
	c1.9-1.9,4.4-2.9,7.1-2.9c1.2,0,2.5,0.2,3.6,0.7c1.3,0.6,2.4,1.3,3.4,2.3L106.8,807.5L106.8,807.5z M101,812.1
	c-1.6,0-3.2,0.6-4.4,1.8c-1.1,1.2-1.8,2.8-1.7,4.4c-0.1,1.7,0.6,3.3,1.8,4.5c1.2,1.2,2.8,1.8,4.4,1.8c1.6,0.1,3.2-0.6,4.3-1.7
	c1.1-1.2,1.8-2.9,1.7-4.5c0.1-1.7-0.5-3.3-1.7-4.5C104.3,812.7,102.7,812,101,812.1L101,812.1z"/>
<path class="st0" d="M118,807.5h5.6v2.3c1-0.9,2.2-1.7,3.4-2.2c1-0.4,2.1-0.6,3.1-0.6c2.1,0,4.1,0.8,5.6,2.3
	c1.3,1.3,1.9,3.3,1.9,5.8v14.7h-5.5V820c0.1-1.8-0.1-3.5-0.4-5.3c-0.2-0.8-0.6-1.5-1.2-2c-0.6-0.5-1.4-0.7-2.2-0.7
	c-1.1,0-2.1,0.4-2.9,1.1c-0.9,0.8-1.4,1.9-1.7,3.1c-0.2,1.5-0.3,3-0.2,4.5v8.9H118L118,807.5L118,807.5z"/>
<line class="st3" x1="5.2" y1="641.6" x2="578.1" y2="641.6"/>
<path class="st2" d="M5.2,644.1h549.6c7.4,0,14.9,0.4,22.3,0c0.3,0,0.7,0,1,0c3.2,0,3.3-5,0-5H28.5c-7.4,0-14.9-0.4-22.3,0
	c-0.3,0-0.7,0-1,0C2,639.1,2,644.1,5.2,644.1L5.2,644.1L5.2,644.1z"/>
<circle class="st0" cx="263.9" cy="782.6" r="25.4"/>
<circle class="st0" cx="264.9" cy="919.6" r="25.4"/>
<circle class="st0" cx="264.9" cy="1055.6" r="25.4"/>
<circle class="st0" cx="263.9" cy="1182" r="25.4"/>
</svg>
