<svg id="Layer_1" data-name="Layer 1" xmlns="http://www.w3.org/2000/svg" viewBox="0 0 1018.5 164.28"><defs><style>.cls-1,.cls-2{fill:#b83326;stroke:#b83326;stroke-miterlimit:10;}.cls-1{stroke-width:2px;}</style></defs><title>title</title><path class="cls-1" d="M180.44,118.67H170.3l-7.87-31.59H162.3l-7.74,31.59H144.23L131.95,72.25h10.21L148.72,104l0.91-.13,8.06-31.59h9.56l7.93,32,0.91,0.06,6.83-32h10Z" transform="translate(-130.65 -70.21)"/><path class="cls-1" d="M212.81,100.14V110H239v8.58H202.93V72.06h33.87v8.58h-24V91.1H234v9H212.81Z" transform="translate(-130.65 -70.21)"/><path class="cls-1" d="M251.74,118.34V72.06h10v37.7h23.79v8.58h-33.8Z" transform="translate(-130.65 -70.21)"/><path class="cls-1" d="M318.82,118.79a23.53,23.53,0,1,1,20.41-35c-4,2.08-4.29,2.27-8.71,4.42a13.52,13.52,0,0,0-11.7-6.7,13.78,13.78,0,0,0,0,27.56,13.55,13.55,0,0,0,12.09-7.22c4.42,2.28,4.55,2.54,8.71,4.42A23.34,23.34,0,0,1,318.82,118.79Z" transform="translate(-130.65 -70.21)"/><path class="cls-1" d="M373.09,119.25a24,24,0,1,1,24.05-24A24,24,0,0,1,373.09,119.25Zm-14.17-24A14.11,14.11,0,1,0,373.09,81,14.29,14.29,0,0,0,358.92,95.26Z" transform="translate(-130.65 -70.21)"/><path class="cls-1" d="M410.6,72.25h13.26l10.73,20.48,10.53-20.48h13.46v46.41H449V85.84h-0.13L438.55,107h-7.87l-10.27-20.8h-0.13v32.5H410.6V72.25Z" transform="translate(-130.65 -70.21)"/><path class="cls-1" d="M483.66,100.14V110h26.2v8.58H473.78V72.06h33.87v8.58h-24V91.1h21.19v9H483.66Z" transform="translate(-130.65 -70.21)"/><path class="cls-1" d="M561.53,80.83H546.77V72.32h39.59V80.9H571.73v37.77H561.53V80.83Z" transform="translate(-130.65 -70.21)"/><path class="cls-1" d="M619.38,119.25a24,24,0,1,1,24.05-24A24,24,0,0,1,619.38,119.25Zm-14.17-24A14.11,14.11,0,1,0,619.38,81,14.29,14.29,0,0,0,605.21,95.26Z" transform="translate(-130.65 -70.21)"/><path class="cls-1" d="M693.74,80.83H679V72.32h39.59V80.9H703.94v37.77H693.74V80.83Z" transform="translate(-130.65 -70.21)"/><path class="cls-1" d="M761.47,98.77H740v19.76H730V72H740V88.83h21.52V72.12h10v46.41h-10V98.77Z" transform="translate(-130.65 -70.21)"/><path class="cls-1" d="M794.29,100.14V110h26.2v8.58H784.41V72.06h33.87v8.58h-24V91.1h21.19v9H794.29Z" transform="translate(-130.65 -70.21)"/><path class="cls-1" d="M887.57,104c0,6-1.62,15.73-15.47,15.73-5.2,0-10.14-1.88-13-6.11a13.59,13.59,0,0,1-2.28-6.69l9.42-1.56c0,3.45,1,5.79,5.72,5.79,5.4,0,5.4-4.29,5.4-7.61V72.25h10.21V104Z" transform="translate(-130.65 -70.21)"/><path class="cls-1" d="M942.43,101.11c0,12.54-7.41,18.66-19.83,18.66s-19.76-6-19.76-18.66V72.25H913v28.86c0,5.07,1.3,10.08,9.56,10.08,7.28,0,9.62-3.12,9.62-10.08V72.25h10.21v28.86Z" transform="translate(-130.65 -70.21)"/><path class="cls-1" d="M965.7,86.62v32.11h-8.91V72.12h11.7l20.74,29v-29h8.64v46.61h-8.64Z" transform="translate(-130.65 -70.21)"/><path class="cls-1" d="M1053.64,107a24,24,0,1,1-21.06-35.56,24.34,24.34,0,0,1,21,12.22c-4.09,2.08-4.42,2.27-9,4.55a13.68,13.68,0,0,0-12-6.83,14,14,0,1,0,0,28.08c5.2,0,10.4-2.6,12.29-7h-1c-2.08,0-6.83.07-9.43,0.07a7.51,7.51,0,0,1-1.82-.07V93.83c6.57,0,15.73.06,23.73,0.06C1056.31,95.26,1056,103.84,1053.64,107Z" transform="translate(-130.65 -70.21)"/><path class="cls-1" d="M1067.23,118.34V72.06h10v37.7H1101v8.58h-33.8Z" transform="translate(-130.65 -70.21)"/><path class="cls-1" d="M1122,100.14V110h26.2v8.58h-36.08V72.06h33.87v8.58h-24V91.1h21.19v9H1122Z" transform="translate(-130.65 -70.21)"/><path class="cls-2" d="M407.36,227.69A11.82,11.82,0,1,1,397,210.19a12,12,0,0,1,10.33,6c-2,1-2.18,1.12-4.42,2.24a6.74,6.74,0,0,0-5.92-3.36,6.91,6.91,0,1,0,0,13.82c2.56,0,5.12-1.28,6-3.46h-0.51l-4.64,0a3.7,3.7,0,0,1-.9,0v-4.22c3.23,0,7.74,0,11.68,0C408.68,221.93,408.55,226.15,407.36,227.69Z" transform="translate(-130.65 -70.21)"/><path class="cls-2" d="M427.56,225l6.4,8.48h-6.14l-5.76-8.22h-2.46v8.22h-5.06V210.6h10.3c5.76,0,8,3.62,8,7.33a6.84,6.84,0,0,1-5.44,7.07h0.19Zm-8-10.5v6.88h3.9c2.4,0,4.38-.54,4.38-3.46s-2-3.42-4.38-3.42h-3.9Z" transform="translate(-130.65 -70.21)"/><path class="cls-2" d="M438.66,233.45L449,210.63h5.06l10.21,22.81h-4.86l-2.24-5.06H445.64l-2.4,5.06h-4.58Zm13-18.53-3.84,8.83h7.58l-3.71-8.83h0Z" transform="translate(-130.65 -70.21)"/><path class="cls-2" d="M474.15,229.19H487v4.22H469.29V210.51H486v4.22H474.15v5.15h10.43v4.45H474.15v4.86Z" transform="translate(-130.65 -70.21)"/><path class="cls-2" d="M494.4,210.6h6.53l5.28,10.08,5.18-10.08H518v22.85h-4.7V217.29h-0.06l-5.09,10.4h-3.87l-5.06-10.24h-0.06v16H494.4V210.6Z" transform="translate(-130.65 -70.21)"/><path class="cls-2" d="M530.37,229.19h12.9v4.22H525.51V210.51h16.67v4.22H530.37v5.15H540.8v4.45H530.37v4.86Z" transform="translate(-130.65 -70.21)"/><path class="cls-2" d="M576,225l6.4,8.48h-6.14l-5.76-8.22H568v8.22H563V210.6h10.3c5.76,0,8,3.62,8,7.33a6.84,6.84,0,0,1-5.44,7.07H576Zm-8-10.5v6.88h3.9c2.4,0,4.38-.54,4.38-3.46s-2-3.42-4.38-3.42H568Z" transform="translate(-130.65 -70.21)"/><path class="cls-2" d="M593.57,229.19h12.9v4.22H588.71V210.51h16.67v4.22H593.57v5.15H604v4.45H593.57v4.86Z" transform="translate(-130.65 -70.21)"/><path class="cls-2" d="M617.57,229.19h12.9v4.22H612.71V210.51h16.67v4.22H617.57v5.15H628v4.45H617.57v4.86Z" transform="translate(-130.65 -70.21)"/><path class="cls-2" d="M637.28,210.6h9.85c5.92,0,10.37,3.74,10.37,11.29,0,6.62-3.39,11.55-10.37,11.55h-9.85V210.6Zm5,18.62h4.48c2.91,0,5.7-1.79,5.7-6.85,0-4.61-1.63-7.55-6.59-7.55h-3.58v14.4Z" transform="translate(-130.65 -70.21)"/><path class="cls-2" d="M668.07,211.53a37,37,0,0,1-3,7.58l-1.79.22a45.24,45.24,0,0,0,1.89-7.52Z" transform="translate(-130.65 -70.21)"/><path class="cls-2" d="M677.63,226.67c0.51,3,3.2,3.42,5.06,3.42s4.45-.51,4.45-2.85c0-4.86-13.6-1.73-13.6-10.27,0-4.7,4.42-6.91,8.54-6.91,4.77,0,9.15,2.08,9.15,7.36l-4.86-.7c-0.61-2.66-2.94-2.75-4.51-2.75s-3.46.67-3.46,2.59c0,1.7,1.09,2.08,6.82,3.46,1.7,0.42,6.78,1.47,6.78,6.66,0,4.19-3.26,7.33-9.5,7.33-5.12,0-9.73-2.5-9.73-8.13Z" transform="translate(-130.65 -70.21)"/><path class="cls-2" d="M711.08,210.6h10.3c5.73,0,7.9,3.62,7.9,7.33s-2.18,7.33-7.9,7.33H716.1v8.19h-5V210.6Zm5,10.75H720c2.3,0,4.42-.51,4.42-3.42s-2.11-3.42-4.42-3.42h-3.9v6.85Z" transform="translate(-130.65 -70.21)"/><path class="cls-2" d="M745.79,233.74a11.82,11.82,0,1,1,11.84-11.81A11.8,11.8,0,0,1,745.79,233.74Zm-7-11.81a6.94,6.94,0,1,0,7-7A7,7,0,0,0,738.82,221.93Z" transform="translate(-130.65 -70.21)"/><path class="cls-2" d="M776.74,225l6.4,8.48H777l-5.76-8.22h-2.46v8.22h-5.06V210.6H774c5.76,0,8,3.62,8,7.33a6.84,6.84,0,0,1-5.44,7.07h0.19Zm-8-10.5v6.88h3.9c2.4,0,4.38-.54,4.38-3.46s-2-3.42-4.38-3.42h-3.9Z" transform="translate(-130.65 -70.21)"/><path class="cls-2" d="M794.31,229.19v4.26h-4.86V210.51h16.67v4.22H794.31v5.15h10.43v4.45H794.31v4.86Z" transform="translate(-130.65 -70.21)"/><path class="cls-2" d="M822.37,233.74a11.82,11.82,0,1,1,11.84-11.81A11.8,11.8,0,0,1,822.37,233.74Zm-7-11.81a6.94,6.94,0,1,0,7-7A7,7,0,0,0,815.39,221.93Z" transform="translate(-130.65 -70.21)"/><path class="cls-2" d="M839.81,233.29V210.51h4.93v18.56h11.71v4.22H839.81Z" transform="translate(-130.65 -70.21)"/><path class="cls-2" d="M862.46,210.6h5v22.85h-5V210.6Z" transform="translate(-130.65 -70.21)"/><path class="cls-2" d="M885.28,233.74a11.82,11.82,0,1,1,11.84-11.81A11.8,11.8,0,0,1,885.28,233.74Zm-7-11.81a6.94,6.94,0,1,0,7-7A7,7,0,0,0,878.3,221.93Z" transform="translate(-130.65 -70.21)"/></svg>